<?xml version="1.0" encoding="UTF-8"?>
<svg version="1.1" xmlns="http://www.w3.org/2000/svg" width="640" height="640">
<path d="M0 0 C211.2 0 422.4 0 640 0 C640 211.2 640 422.4 640 640 C428.8 640 217.6 640 0 640 C0 428.8 0 217.6 0 0 Z " fill="#FEFEFE" transform="translate(0,0)"/>
<path d="M0 0 C1.03193481 0.33559937 1.03193481 0.33559937 2.0847168 0.67797852 C7.50911734 2.46965388 12.84619503 4.47774059 18.17628479 6.53018188 C23.14088112 8.42068935 28.1507024 10.06557842 33.2265625 11.62890625 C43.57074824 14.85673628 53.81739969 18.34744645 64.0625 21.875 C67.52175112 23.06362137 70.98147152 24.25087017 74.44140625 25.4375 C75.70274384 25.87042862 75.70274384 25.87042862 76.98956299 26.31210327 C83.46092656 28.52931685 89.94769033 30.69798323 96.43992615 32.85317993 C101.68806136 34.59762842 106.91706598 36.38857046 112.125 38.25 C113.21941406 38.63865234 113.21941406 38.63865234 114.3359375 39.03515625 C116.05784362 39.64688606 117.77901812 40.26067482 119.5 40.875 C118.625 45.75 118.625 45.75 117.5 46.875 C113.35990945 46.51183416 109.50161748 45.9218593 105.5 44.8125 C98.10991672 42.93269241 92.92312968 43.79159431 85.95703125 46.5390625 C83.21622899 47.59821999 80.48033801 48.5800075 77.69921875 49.5234375 C76.40226074 49.96514282 76.40226074 49.96514282 75.07910156 50.41577148 C73.36503582 50.99763502 71.64961028 51.57551387 69.93261719 52.14868164 C52.24937137 58.2209557 35.56041078 68.66140325 21.5 80.875 C20.19716611 81.84643342 18.8851068 82.80566411 17.5625 83.75 C9.24573629 89.93207076 1.73829659 97.00537913 -4.48828125 105.29296875 C-6.21074731 107.50374557 -7.99856991 109.55904787 -9.87109375 111.640625 C-13.41794833 115.67248738 -16.39823976 119.89352936 -19.25 124.4375 C-19.75732666 125.24469482 -20.26465332 126.05188965 -20.78735352 126.88354492 C-29.42157696 140.96181011 -36.51773144 156.1258065 -41.5 171.875 C-41.91636719 173.10734375 -42.33273437 174.3396875 -42.76171875 175.609375 C-45.14833873 182.77817694 -47.09988373 189.9874934 -48.6875 197.375 C-48.84226807 198.08487061 -48.99703613 198.79474121 -49.15649414 199.52612305 C-51.99545279 213.39055353 -52.87855594 227.07976166 -52.8125 241.1875 C-52.81067719 242.00059631 -52.80885437 242.81369263 -52.80697632 243.65142822 C-52.76489137 254.81750971 -52.44894551 265.6710759 -50.00048828 276.609375 C-49.43047697 279.18971887 -48.93219881 281.77993665 -48.43359375 284.375 C-44.6796297 303.35134385 -38.80171196 321.40698121 -30.5 338.875 C-30.1194043 339.68388672 -29.73880859 340.49277344 -29.34667969 341.32617188 C-24.52468181 351.50637073 -19.65353419 361.10575377 -12.5 369.875 C-11.4525205 371.18571505 -10.40569911 372.49695619 -9.359375 373.80859375 C-6.5828867 377.27290575 -3.77008141 380.7052525 -0.93896484 384.125 C0.24892689 385.56965694 1.41464462 387.03251635 2.57421875 388.5 C7.1030152 394.07390332 12.03596184 398.10793992 19.2734375 399.3515625 C24.73873437 399.63605741 28.8569066 399.09308147 33.078125 395.46484375 C44.35985941 382.85037698 43.7027174 362.20299995 43.6875 346.375 C43.6882251 345.58833954 43.6889502 344.80167908 43.68969727 343.99118042 C43.68792799 325.92180215 43.03572987 307.87116169 42.4286232 289.81461334 C41.45573963 260.82487984 41.26252248 231.88225988 41.5 202.875 C46.25 203.625 46.25 203.625 48.5 205.875 C62.09740908 208.79675732 75.80102478 198.08529429 86.8371582 191.5456543 C154.12233515 151.71744731 154.12233515 151.71744731 178.5 154.875 C183.35104621 156.49396362 187.93073075 158.59036537 192.5 160.875 C192.5 162.195 192.5 163.515 192.5 164.875 C187.22 164.875 181.94 164.875 176.5 164.875 C175.69751076 168.08495697 175.37454588 170.23803377 175.37301636 173.45269775 C175.36878662 174.82567772 175.36878662 174.82567772 175.36447144 176.22639465 C175.36649567 177.22450668 175.3685199 178.22261871 175.37060547 179.25097656 C175.36885315 180.30896957 175.36710083 181.36696259 175.36529541 182.45701599 C175.36087668 185.9765688 175.3638225 189.49607161 175.3671875 193.015625 C175.36651268 195.49241139 175.36554117 197.96919772 175.36428833 200.44598389 C175.36262044 206.3374628 175.36612695 212.2289239 175.3714391 218.12040019 C175.37616438 224.02002407 175.37142865 229.91962262 175.36618328 235.81924438 C175.34769327 260.39079156 175.39990959 284.9449715 176.11888123 309.50701904 C176.4745819 321.76485444 176.64385765 334.01879015 176.74609375 346.28125 C176.76289372 348.19569928 176.77971908 350.11014834 176.79656982 352.02459717 C176.86301762 359.74145232 176.925149 367.4583238 176.97680664 375.17529297 C177.12875292 397.36934312 177.52931653 419.49900989 178.79527283 441.6607666 C180.54238426 472.27346195 180.54238426 472.27346195 179.5 479.875 C178.84 480.535 178.18 481.195 177.5 481.875 C176.18 481.875 174.86 481.875 173.5 481.875 C173.44577881 481.14611572 173.39155762 480.41723145 173.33569336 479.66625977 C171.76096551 459.81092758 169.20843528 442.16288543 155.5 426.875 C154.51 426.215 153.52 425.555 152.5 424.875 C152.5 424.215 152.5 423.555 152.5 422.875 C151.63375 422.4728125 151.63375 422.4728125 150.75 422.0625 C148.44449957 420.84570811 146.47943808 419.57166121 144.5 417.875 C144.5 417.215 144.5 416.555 144.5 415.875 C143.77425781 415.60300781 143.04851562 415.33101563 142.30078125 415.05078125 C139.58642541 413.9112818 137.21227099 412.56941056 134.6875 411.0625 C107.74141582 396.31230706 74.29760907 397.10327164 45.5 404.875 C44.30093018 405.18727539 44.30093018 405.18727539 43.07763672 405.50585938 C33.12182866 408.11791176 23.8708835 411.59594861 14.5 415.875 C13.00019918 416.52129575 11.50022251 417.1671837 10 417.8125 C-8.91651518 426.35096373 -27.23039549 436.89519994 -43.26171875 450.16015625 C-45.5 451.875 -45.5 451.875 -47.5 451.875 C-47.5 452.535 -47.5 453.195 -47.5 453.875 C-49.15483608 455.37377503 -50.87590512 456.79988473 -52.625 458.1875 C-53.62660156 458.98671875 -54.62820313 459.7859375 -55.66015625 460.609375 C-56.59730469 461.35703125 -57.53445312 462.1046875 -58.5 462.875 C-59.69127262 463.8914283 -60.87979626 464.91111371 -62.0625 465.9375 C-64.5 467.875 -64.5 467.875 -66.5 467.875 C-66.5 468.535 -66.5 469.195 -66.5 469.875 C-70.52596298 471.88798149 -75.13446595 471.47928479 -79.5 470.875 C-83.14565444 469.27840098 -86.26604395 467.17771216 -89.5 464.875 C-90.70721509 464.12320138 -91.91535542 463.3728833 -93.125 462.625 C-93.90875 462.0475 -94.6925 461.47 -95.5 460.875 C-95.5 460.215 -95.5 459.555 -95.5 458.875 C-96.06203125 458.63136719 -96.6240625 458.38773438 -97.203125 458.13671875 C-99.94019785 456.63319064 -101.95795941 454.80800252 -104.25 452.6875 C-107.21877681 449.95335232 -110.20834645 447.25921362 -113.265625 444.625 C-124.18914929 435.09069097 -134.99514507 424.64451381 -143.5 412.875 C-144.53615444 411.46982794 -145.57264655 410.06490485 -146.609375 408.66015625 C-152.53763756 400.57893152 -158.31257133 392.45648915 -163.5 383.875 C-164.20213623 382.72547852 -164.20213623 382.72547852 -164.91845703 381.55273438 C-182.68336363 351.47470172 -198.51168218 310.39648867 -198.64526367 274.89575195 C-198.65164352 273.73626541 -198.65802338 272.57677887 -198.66459656 271.38215637 C-198.66570938 270.13842758 -198.6668222 268.89469879 -198.66796875 267.61328125 C-198.67129715 266.31287399 -198.67462555 265.01246674 -198.67805481 263.6726532 C-198.68403232 260.91644463 -198.68589662 258.16026732 -198.68530273 255.40405273 C-198.68522212 252.61622538 -198.69205932 249.8285646 -198.70581055 247.04077148 C-198.80517066 226.5385184 -198.56260536 206.79909196 -193.25 186.875 C-192.78920044 185.09343506 -192.78920044 185.09343506 -192.3190918 183.27587891 C-188.81124272 169.9111817 -185.0144075 156.56781166 -179.5 143.875 C-178.99855469 142.67875 -178.49710938 141.4825 -177.98046875 140.25 C-174.26581587 131.47488322 -170.13465512 123.02406511 -165.50732422 114.6953125 C-164.51273568 112.89801436 -163.53876192 111.09065131 -162.56640625 109.28125 C-157.94561357 100.80396242 -152.56611519 93.35843182 -146.5 85.875 C-145.73429687 84.9159375 -144.96859375 83.956875 -144.1796875 82.96875 C-139.86268322 77.61385968 -135.39052983 72.43168921 -130.75390625 67.3515625 C-129.2257804 65.67247795 -127.71314142 63.97919177 -126.21484375 62.2734375 C-121.59953667 57.03272861 -116.89866888 52.29853985 -111.5 47.875 C-111.0138623 47.46588379 -110.52772461 47.05676758 -110.02685547 46.63525391 C-92.76989485 32.12737328 -73.40450455 18.54887785 -52.5 9.875 C-51.19628006 9.31457965 -49.89290683 8.7533522 -48.58984375 8.19140625 C-16.53047766 -5.43046683 -16.53047766 -5.43046683 0 0 Z " fill="#C6156D" transform="translate(311.5,73.125)"/>
<path d="M0 0 C-0.16238096 0.56558498 -0.32476192 1.13116997 -0.49206352 1.71389389 C-1.01821777 4.08199402 -1.12583056 6.15422615 -1.12698364 8.57769775 C-1.13121338 9.95067772 -1.13121338 9.95067772 -1.13552856 11.35139465 C-1.13350433 12.34950668 -1.1314801 13.34761871 -1.12939453 14.37597656 C-1.13114685 15.43396957 -1.13289917 16.49196259 -1.13470459 17.58201599 C-1.13912332 21.1015688 -1.1361775 24.62107161 -1.1328125 28.140625 C-1.13348732 30.61741139 -1.13445883 33.09419772 -1.13571167 35.57098389 C-1.13737956 41.4624628 -1.13387305 47.3539239 -1.1285609 53.24540019 C-1.12383562 59.14502407 -1.12857135 65.04462262 -1.13381672 70.94424438 C-1.15230673 95.51579156 -1.10009041 120.0699715 -0.38111877 144.63201904 C-0.0254181 156.88985444 0.14385765 169.14379015 0.24609375 181.40625 C0.26289372 183.32069928 0.27971908 185.23514834 0.29656982 187.14959717 C0.36301762 194.86645232 0.425149 202.5833238 0.47680664 210.30029297 C0.62875292 232.49434312 1.02931653 254.62400989 2.29527283 276.7857666 C4.04238426 307.39846195 4.04238426 307.39846195 3 315 C2.34 315.66 1.68 316.32 1 317 C-0.32 317 -1.64 317 -3 317 C-3.08133179 315.90667358 -3.08133179 315.90667358 -3.16430664 314.79125977 C-4.74685233 294.83735443 -7.37530029 278.8817307 -20.27734375 263.22265625 C-22 261 -22 261 -22 259 C-21.34 259 -20.68 259 -20 259 C-18.4921875 260.75 -18.4921875 260.75 -16.875 263 C-16.06675781 264.11375 -16.06675781 264.11375 -15.2421875 265.25 C-14.83226562 265.8275 -14.42234375 266.405 -14 267 C-14 265.02 -14 263.04 -14 261 C-13.01 260.67 -12.02 260.34 -11 260 C-10.67 259.34 -10.34 258.68 -10 258 C-8.68 258.33 -7.36 258.66 -6 259 C-6 253.39 -6 247.78 -6 242 C-5.34 242 -4.68 242 -4 242 C-3.95101563 243.07121094 -3.90203125 244.14242187 -3.8515625 245.24609375 C-3.77654706 246.64325639 -3.7009987 248.0403905 -3.625 249.4375 C-3.5940625 250.14455078 -3.563125 250.85160156 -3.53125 251.58007812 C-3.42719371 253.39239188 -3.22080108 255.19817988 -3 257 C-2.34 257.33 -1.68 257.66 -1 258 C-1 242.16 -1 226.32 -1 210 C-1.66 210 -2.32 210 -3 210 C-3.01030746 208.74434235 -3.02061493 207.48868469 -3.03123474 206.19497681 C-3.12917277 194.33683254 -3.23192522 182.47873836 -3.33933926 170.62067604 C-3.39440277 164.52496695 -3.44779538 158.42925294 -3.49731445 152.33349609 C-3.54520354 146.44606955 -3.59755355 140.55869774 -3.65294075 134.67133713 C-3.67325362 132.43000026 -3.69198415 130.18864846 -3.70907402 127.9472847 C-3.73336489 124.79764688 -3.76338319 121.64811013 -3.79467773 118.49853516 C-3.80331093 117.1218013 -3.80331093 117.1218013 -3.81211853 115.71725464 C-3.8700776 110.55424607 -4.21948984 105.50733911 -4.7779398 100.37560844 C-5.11360632 96.78463532 -5.12415284 93.22005666 -5.09765625 89.61621094 C-5.09619598 88.84410278 -5.09473572 88.07199463 -5.0932312 87.27648926 C-5.08946218 85.62112523 -5.08338583 83.96576508 -5.07516479 82.31041718 C-5.06226598 79.68677461 -5.05585205 77.06318328 -5.05102539 74.43951416 C-5.03966987 68.87631955 -5.02041045 63.31316779 -5 57.75 C-4.97634553 51.28481596 -4.95598894 44.81965598 -4.94406128 38.35443878 C-4.93760534 35.77644075 -4.92510284 33.19851789 -4.91235352 30.62054443 C-4.90872007 29.03576725 -4.90536845 27.4509894 -4.90234375 25.86621094 C-4.89717743 25.15543396 -4.89201111 24.44465698 -4.88668823 23.71234131 C-4.88626365 19.69558661 -5.26819263 15.94498846 -6 12 C-6.06388388 10.04259807 -6.08638169 8.08329853 -6.0625 6.125 C-6.05347656 5.15820312 -6.04445313 4.19140625 -6.03515625 3.1953125 C-6.02355469 2.47085938 -6.01195312 1.74640625 -6 1 C-3 0 -3 0 0 0 Z " fill="#C21D6F" transform="translate(488,238)"/>
<path d="M0 0 C-0.16238096 0.56558498 -0.32476192 1.13116997 -0.49206352 1.71389389 C-1.01821777 4.08199402 -1.12583056 6.15422615 -1.12698364 8.57769775 C-1.12980347 9.49301773 -1.13262329 10.40833771 -1.13552856 11.35139465 C-1.13350433 12.34950668 -1.1314801 13.34761871 -1.12939453 14.37597656 C-1.13202301 15.96296608 -1.13202301 15.96296608 -1.13470459 17.58201599 C-1.13912332 21.1015688 -1.1361775 24.62107161 -1.1328125 28.140625 C-1.13348732 30.61741139 -1.13445883 33.09419772 -1.13571167 35.57098389 C-1.13737956 41.4624628 -1.13387305 47.3539239 -1.1285609 53.24540019 C-1.12383569 59.14493507 -1.12856808 65.0444446 -1.13382244 70.94397736 C-1.15257089 95.90991738 -1.08285723 120.85665186 -0.35612488 145.81304932 C0.04271849 159.54479071 0.11817432 173.26209884 0.0625 187 C0.05744792 189.27473854 0.0528919 191.54947823 0.04882812 193.82421875 C0.03817714 199.21617257 0.02176549 204.6080801 0 210 C-0.99 210 -1.98 210 -3 210 C-3.01030746 208.74434235 -3.02061493 207.48868469 -3.03123474 206.19497681 C-3.12917277 194.33683254 -3.23192522 182.47873836 -3.33933926 170.62067604 C-3.39440277 164.52496695 -3.44779538 158.42925294 -3.49731445 152.33349609 C-3.54520354 146.44606955 -3.59755355 140.55869774 -3.65294075 134.67133713 C-3.67325362 132.43000026 -3.69198415 130.18864846 -3.70907402 127.9472847 C-3.73336489 124.79764688 -3.76338319 121.64811013 -3.79467773 118.49853516 C-3.8004332 117.58071259 -3.80618866 116.66289001 -3.81211853 115.71725464 C-3.8700776 110.55424607 -4.21948984 105.50733911 -4.7779398 100.37560844 C-5.11360632 96.78463532 -5.12415284 93.22005666 -5.09765625 89.61621094 C-5.09619598 88.84410278 -5.09473572 88.07199463 -5.0932312 87.27648926 C-5.08946218 85.62112523 -5.08338583 83.96576508 -5.07516479 82.31041718 C-5.06226598 79.68677461 -5.05585205 77.06318328 -5.05102539 74.43951416 C-5.03966987 68.87631955 -5.02041045 63.31316779 -5 57.75 C-4.97634553 51.28481596 -4.95598894 44.81965598 -4.94406128 38.35443878 C-4.93760534 35.77644075 -4.92510284 33.19851789 -4.91235352 30.62054443 C-4.90872007 29.03576725 -4.90536845 27.4509894 -4.90234375 25.86621094 C-4.89459427 24.80004547 -4.89459427 24.80004547 -4.88668823 23.71234131 C-4.88626365 19.69558661 -5.26819263 15.94498846 -6 12 C-6.06388388 10.04259807 -6.08638169 8.08329853 -6.0625 6.125 C-6.05347656 5.15820312 -6.04445313 4.19140625 -6.03515625 3.1953125 C-6.02355469 2.47085938 -6.01195312 1.74640625 -6 1 C-3 0 -3 0 0 0 Z " fill="#C24181" transform="translate(488,238)"/>
<path d="M0 0 C6.9139838 0.96396889 13.2041512 3.0943604 19.68041992 5.61132812 C24.50772073 7.47522924 29.3623175 9.11898896 34.3125 10.625 C40.62289109 12.5453531 46.83210899 14.66090574 53 17 C52.125 21.875 52.125 21.875 51 23 C46.85990945 22.63683416 43.00161748 22.0468593 39 20.9375 C33.29058997 19.43443331 27.74809168 19.56297708 22 21 C22 20.34 22 19.68 22 19 C25.56045177 17.81318274 28.43808337 17.90310168 32.1875 17.9375 C33.45980469 17.94652344 34.73210937 17.95554687 36.04296875 17.96484375 C37.50669922 17.98224609 37.50669922 17.98224609 39 18 C38.67 16.35 38.34 14.7 38 13 C34.04 12.67 30.08 12.34 26 12 C25.01 13.65 24.02 15.3 23 17 C19.25838897 17 15.71046443 16.48661829 12 16 C12 15.01 12 14.02 12 13 C15.61973402 11.68373308 18.09567131 11 22 11 C22 10.01 22 9.02 22 8 C21.05125 7.855625 20.1025 7.71125 19.125 7.5625 C16 7 16 7 14 6 C9.85496339 5.75212983 9.85496339 5.75212983 6 7 C6 6.34 6 5.68 6 5 C4.68 4.67 3.36 4.34 2 4 C2 3.34 2 2.68 2 2 C1.34 2 0.68 2 0 2 C0 1.34 0 0.68 0 0 Z " fill="#BB226E" transform="translate(378,97)"/>
<path d="M0 0 C0.33 0 0.66 0 1 0 C1.02685938 2.14576637 1.04633088 4.29162645 1.0625 6.4375 C1.07410156 7.63246094 1.08570312 8.82742188 1.09765625 10.05859375 C1 13 1 13 0 14 C-0.09952198 16.13670892 -0.12799678 18.27674655 -0.12939453 20.41577148 C-0.13114685 21.08570129 -0.13289917 21.7556311 -0.13470459 22.44586182 C-0.13912291 24.67096512 -0.13618487 26.89598957 -0.1328125 29.12109375 C-0.13348563 30.66187048 -0.13445572 32.2026471 -0.13571167 33.74342346 C-0.13718868 36.97747811 -0.13503429 40.21150519 -0.13037109 43.44555664 C-0.12467856 47.59642708 -0.12794976 51.7472328 -0.13394356 55.89810085 C-0.13755316 59.08161407 -0.13640866 62.26511189 -0.13381577 65.44862556 C-0.13314735 66.97927928 -0.13397194 68.50993438 -0.13629532 70.04058647 C-0.13882784 72.17870675 -0.13497255 74.31672158 -0.12939453 76.45483398 C-0.12859894 77.67315414 -0.12780334 78.8914743 -0.12698364 80.14671326 C-0.19631256 82.94654558 -0.19631256 82.94654558 1 85 C1.21175723 86.81775764 1.41874168 88.63626567 1.59545898 90.45776367 C2.36654804 98.3794244 3.79892337 105.68107999 5.9765625 113.34375 C7.03167921 117.11317458 7.95252146 120.86887971 8.8125 124.6875 C9.06644531 125.80511719 9.32039063 126.92273438 9.58203125 128.07421875 C9.98551593 130.89861152 9.77300087 132.33018772 9 135 C6.17947253 125.60624851 3.81504097 116.19004103 1.76245117 106.6015625 C1.30669716 104.472897 0.84431792 102.34575012 0.38085938 100.21875 C-3.11875062 84.06688451 -3.11875062 84.06688451 -3.14526367 77.02075195 C-3.15164352 75.86126541 -3.15802338 74.70177887 -3.16459656 73.50715637 C-3.16570938 72.26342758 -3.1668222 71.01969879 -3.16796875 69.73828125 C-3.17129715 68.43787399 -3.17462555 67.13746674 -3.17805481 65.7976532 C-3.18403232 63.04144463 -3.18589662 60.28526732 -3.18530273 57.52905273 C-3.18522212 54.74122538 -3.19205932 51.9535646 -3.20581055 49.16577148 C-3.39538331 10.18614993 -3.39538331 10.18614993 0 0 Z " fill="#AC3473" transform="translate(116,271)"/>
<path d="M0 0 C1.16713039 3.50139116 1.09664392 6.21301566 1.0625 9.90625 C1.05871338 10.58619019 1.05492676 11.26613037 1.05102539 11.9666748 C1.03478145 14.86555556 1.0069751 17.76429313 0.97949219 20.66308594 C0.96110114 22.78580028 0.94919017 24.90848968 0.9375 27.03125 C0.92589844 28.29517578 0.91429687 29.55910156 0.90234375 30.86132812 C0.92722725 34.03485664 1.18306334 37.1471423 1.49804688 40.3046875 C2.04120712 45.91597665 2.13206116 51.45962989 2.09375 57.09375 C2.09016479 58.12197876 2.08657959 59.15020752 2.08288574 60.20959473 C2.02281723 71.975458 1.76897273 83.73740714 1.5 95.5 C1.45158336 97.70311975 1.40340542 99.90624476 1.35546875 102.109375 C1.23971202 107.40631338 1.12108128 112.70318078 1 118 C0.34 118 -0.32 118 -1 118 C-0.95875 118.721875 -0.9175 119.44375 -0.875 120.1875 C-1.00921305 123.20729369 -1.75170619 125.26935729 -3 128 C-3.66 128 -4.32 128 -5 128 C-4.79503906 127.17757812 -4.59007812 126.35515625 -4.37890625 125.5078125 C-4.10949219 124.39148438 -3.84007812 123.27515625 -3.5625 122.125 C-3.29566406 121.03445313 -3.02882813 119.94390625 -2.75390625 118.8203125 C-0.71801594 108.50372843 -0.84239752 98.15854982 -0.875 87.6875 C-0.87588623 86.86673981 -0.87677246 86.04597961 -0.87768555 85.2003479 C-0.89543484 71.03419059 -1.18249744 56.88169978 -1.64404297 42.72338867 C-1.87878691 35.43566806 -2.0482306 28.1551995 -2.05859375 20.86328125 C-2.06036621 20.17735397 -2.06213867 19.4914267 -2.06396484 18.78471375 C-2.03308508 2.03308508 -2.03308508 2.03308508 0 0 Z " fill="#B82970" transform="translate(356,330)"/>
<path d="M0 0 C0.33 0 0.66 0 1 0 C1.81292387 10.9580213 2.17350823 21.86341461 2.26036072 32.84898567 C2.28182472 35.54484016 2.3087915 38.24059458 2.33703613 40.93638611 C2.40599498 47.61631045 2.4663141 54.29630619 2.52606201 60.97631836 C2.57715107 66.66018409 2.6319581 72.34398937 2.69187927 78.02776909 C2.71825203 80.67271461 2.73916926 83.31766682 2.7598877 85.96266174 C2.77649554 87.58847333 2.7933678 89.21428224 2.81054688 90.84008789 C2.81473129 91.56589554 2.81891571 92.29170319 2.82322693 93.039505 C2.87687542 97.44314969 3.35664146 101.64886099 4 106 C4.07967345 107.91595388 4.1180374 109.83410455 4.11352539 111.75170898 C4.11344986 112.83230087 4.11337433 113.91289276 4.11329651 115.02622986 C4.10813522 116.17128494 4.10297394 117.31634003 4.09765625 118.49609375 C4.0962413 119.68477554 4.09482635 120.87345734 4.09336853 122.09815979 C4.08779114 125.87796594 4.07524275 129.65771189 4.0625 133.4375 C4.05748208 136.0071606 4.05291968 138.57682213 4.04882812 141.14648438 C4.03782911 147.43100997 4.0211135 153.71550068 4 160 C3.67 160 3.34 160 3 160 C1.36004242 132.24881135 0.61461814 104.55629286 0.39910889 76.75964355 C0.36677289 72.80679326 0.32727865 68.85402873 0.28753281 64.90124702 C0.07015837 43.26724526 -0.06599233 21.63516177 0 0 Z " fill="#FDE2F6" transform="translate(487,368)"/>
<path d="M0 0 C2.97 0 5.94 0 9 0 C5.2430646 3.07449583 1.34857676 5.90390664 -2.625 8.6875 C-8.99385911 13.18545389 -15.04201366 17.9661095 -21 23 C-22.32 22.34 -23.64 21.68 -25 21 C-24.34 20.34 -23.68 19.68 -23 19 C-23 19.66 -23 20.32 -23 21 C-22.34 21 -21.68 21 -21 21 C-20.66781808 17.99740483 -20.66781808 17.99740483 -22.5 16.3125 C-23.2425 15.6628125 -23.2425 15.6628125 -24 15 C-21.36 15 -18.72 15 -16 15 C-15.896875 14.071875 -15.79375 13.14375 -15.6875 12.1875 C-14.9929808 8.96745642 -14.52259061 7.97420135 -12 6 C-11.01 6.33 -10.02 6.66 -9 7 C-8.34 6.67 -7.68 6.34 -7 6 C-7 6.66 -7 7.32 -7 8 C-6.34 8 -5.68 8 -5 8 C-5 6.68 -5 5.36 -5 4 C-5.66 4 -6.32 4 -7 4 C-7 3.01 -7 2.02 -7 1 C-4.69 1.33 -2.38 1.66 0 2 C0 1.34 0 0.68 0 0 Z " fill="#F6F1F8" transform="translate(224,97)"/>
<path d="M0 0 C5 1 5 1 7 3 C13.77825216 3.9866265 19.74712225 2.53739967 26 0 C23.72635823 2.42999536 22.31726155 3.42805835 19 4 C19 4.66 19 5.32 19 6 C18.20335937 6.06058594 17.40671875 6.12117188 16.5859375 6.18359375 C8.75667303 6.79667866 8.75667303 6.79667866 1 8 C1.14084796 9.79206547 1.28783701 11.58364917 1.4375 13.375 C1.51871094 14.37273437 1.59992188 15.37046875 1.68359375 16.3984375 C1.84965626 18.97927613 1.84965626 18.97927613 3 21 C3.04022391 23.3329866 3.04320247 25.66706666 3 28 C2.34 28 1.68 28 1 28 C1 36.91 1 45.82 1 55 C0.67 55 0.34 55 0 55 C0 36.85 0 18.7 0 0 Z " fill="#BC1568" transform="translate(353,276)"/>
<path d="M0 0 C5.21259566 4.69133609 6.20751761 8.9240406 6.625 15.8125 C6.69976562 16.97394531 6.77453125 18.13539063 6.8515625 19.33203125 C6.90054687 20.21246094 6.94953125 21.09289062 7 22 C7.66 22 8.32 22 9 22 C9 16.72 9 11.44 9 6 C9.33 6 9.66 6 10 6 C10.05784708 10.12494151 10.09354407 14.24977944 10.125 18.375 C10.15013672 20.1384375 10.15013672 20.1384375 10.17578125 21.9375 C10.18222656 23.05898438 10.18867188 24.18046875 10.1953125 25.3359375 C10.20578613 26.37282715 10.21625977 27.4097168 10.22705078 28.47802734 C10 31 10 31 8 33 C6.68 33 5.36 33 4 33 C3.91435791 32.21351074 3.82871582 31.42702148 3.74047852 30.61669922 C3.34956703 27.03593949 2.95605879 23.45546969 2.5625 19.875 C2.42779297 18.6375 2.29308594 17.4 2.15429688 16.125 C2.02216797 14.92617188 1.89003906 13.72734375 1.75390625 12.4921875 C1.63345947 11.39245605 1.5130127 10.29272461 1.38891602 9.15966797 C1.01079156 6.08767381 0.53221997 3.04871665 0 0 Z " fill="#B92974" transform="translate(481,522)"/>
<path d="M0 0 C0 0.33 0 0.66 0 1 C-2.97 0.67 -5.94 0.34 -9 0 C-9 0.33 -9 0.66 -9 1 C-11.64 1 -14.28 1 -17 1 C-17 0.34 -17 -0.32 -17 -1 C-20.63 -1.66 -24.26 -2.32 -28 -3 C-28 -3.33 -28 -3.66 -28 -4 C-33.55313596 -4.93424225 -38.93593075 -5.18308007 -44.5625 -5.1875 C-45.38685547 -5.19974609 -46.21121094 -5.21199219 -47.06054688 -5.22460938 C-51.84912896 -5.23609279 -55.45577638 -4.62602832 -60 -3 C-62.45140859 -2.72178875 -64.91179765 -2.51442655 -67.375 -2.375 C-69.24285156 -2.26285156 -69.24285156 -2.26285156 -71.1484375 -2.1484375 C-72.55996094 -2.07496094 -72.55996094 -2.07496094 -74 -2 C-55.52720962 -14.31519359 -19.14477528 -7.79641374 0 0 Z " fill="#F8EAF5" transform="translate(436,479)"/>
<path d="M0 0 C0.66 0 1.32 0 2 0 C1 4 1 4 0.4747324 5.84718704 C-0.04166748 8.18895338 -0.13923395 10.29754481 -0.15821838 12.69500732 C-0.1680072 13.63447708 -0.17779602 14.57394684 -0.18788147 15.54188538 C-0.19363693 16.56543625 -0.1993924 17.58898712 -0.20532227 18.64355469 C-0.21522186 19.72678513 -0.22512146 20.81001556 -0.23532104 21.92607117 C-0.26691875 25.50798351 -0.29168677 29.08990912 -0.31640625 32.671875 C-0.33697726 35.15480902 -0.35797377 37.63773954 -0.37937927 40.1206665 C-0.42894155 45.98893543 -0.47421084 51.8572252 -0.51740164 57.72554421 C-0.57166941 65.06315993 -0.6326002 72.40071664 -0.69335938 79.73828125 C-0.80092229 92.82548145 -0.90255665 105.91272075 -1 119 C-1.33 119 -1.66 119 -2 119 C-2.0467164 104.07496211 -2.08198708 89.14992988 -2.10362434 74.22483444 C-2.11393784 67.2948843 -2.12799956 60.36497958 -2.15087891 53.43505859 C-2.17293873 46.75017928 -2.18456143 40.06535695 -2.18975449 33.38043976 C-2.19345639 30.82710272 -2.20068505 28.27376834 -2.21146011 25.72045135 C-2.22592939 22.15049098 -2.22797983 18.58072705 -2.22705078 15.01074219 C-2.23424133 13.94978836 -2.24143188 12.88883453 -2.24884033 11.79573059 C-2.246091 10.82260422 -2.24334167 9.84947784 -2.24050903 8.84686279 C-2.24235262 8.00250042 -2.24419621 7.15813805 -2.24609566 6.28818893 C-1.97754107 3.79117762 -1.2527097 2.15838179 0 0 Z " fill="#FDE3F6" transform="translate(488,238)"/>
<path d="M0 0 C1.5625 2.625 1.5625 2.625 2 5 C4.64 5 7.28 5 10 5 C9.67 5.66 9.34 6.32 9 7 C7.49986903 6.85552017 5.99990298 6.70932785 4.5 6.5625 C3.24703125 6.44068359 3.24703125 6.44068359 1.96875 6.31640625 C-0.26431932 6.07840807 -2.49306139 5.79925225 -4.71875 5.5 C-9.46762545 4.89852819 -14.22068592 4.66141564 -19 4.4375 C-19.87011719 4.39431641 -20.74023438 4.35113281 -21.63671875 4.30664062 C-23.75768219 4.20175782 -25.87882433 4.10049925 -28 4 C-24.94932165 0.94932165 -21.60373178 1.56066225 -17.43359375 1.34375 C-16.63050781 1.2303125 -15.82742188 1.116875 -15 1 C-14.67 0.34 -14.34 -0.32 -14 -1 C-9.3959841 -2.72650596 -4.45494141 -1.84587214 0 0 Z " fill="#C2166E" transform="translate(414,468)"/>
<path d="M0 0 C0 1.32 0 2.64 0 4 C-5.28 4 -10.56 4 -16 4 C-16 3.34 -16 2.68 -16 2 C-12.7 1.67 -9.4 1.34 -6 1 C-7.32 0.34 -8.64 -0.32 -10 -1 C-9.67 -1.33 -9.34 -1.66 -9 -2 C-12.39581516 -2.0291544 -15.79159786 -2.04685068 -19.1875 -2.0625 C-20.14720703 -2.07087891 -21.10691406 -2.07925781 -22.09570312 -2.08789062 C-23.02705078 -2.09111328 -23.95839844 -2.09433594 -24.91796875 -2.09765625 C-25.77156982 -2.10289307 -26.6251709 -2.10812988 -27.50463867 -2.11352539 C-30.05511777 -2.0740559 -30.05511777 -2.0740559 -32.69262695 -1.36889648 C-33.45406006 -1.24716064 -34.21549316 -1.1254248 -35 -1 C-35.66 -1.66 -36.32 -2.32 -37 -3 C-22.26019317 -6.88132844 -13.74817165 -6.87408583 0 0 Z " fill="#B93D7B" transform="translate(504,234)"/>
<path d="M0 0 C0.70125 0.309375 1.4025 0.61875 2.125 0.9375 C5.08936657 2.03302678 7.87698108 2.56422992 11 3 C8.40235147 5.59764853 6.30429006 5.84150434 2.75 6.75 C-3.82114384 8.5452094 -9.83813292 10.92798913 -16.0390625 13.73046875 C-18.39209332 14.739354 -20.50355076 15.49462125 -23 16 C-23.33 15.34 -23.66 14.68 -24 14 C-20.77208445 11.8480563 -19.71599191 11.79913557 -16 12 C-16 11.34 -16 10.68 -16 10 C-18.31 10.33 -20.62 10.66 -23 11 C-22.34 10.01 -21.68 9.02 -21 8 C-19 8 -17 8 -15 8 C-14.34 7.01 -13.68 6.02 -13 5 C-12.34 5.33 -11.68 5.66 -11 6 C-11.33 6.33 -11.66 6.66 -12 7 C-7.73378599 7.19842856 -4.89795604 6.68560261 -1 5 C-0.01 5 0.98 5 2 5 C2 4.34 2 3.68 2 3 C1.01 3 0.02 3 -1 3 C-0.67 2.01 -0.34 1.02 0 0 Z " fill="#BA2671" transform="translate(345,474)"/>
<path d="M0 0 C-0.61235955 5.51123596 -0.61235955 5.51123596 -2.4375 7.8125 C-4 9 -4 9 -6 10 C-6.33 9.34 -6.66 8.68 -7 8 C-7.226875 9.11375 -7.45375 10.2275 -7.6875 11.375 C-9 15 -9 15 -11.4375 16.5 C-14 17 -14 17 -17 16 C-17.9075 16.495 -18.815 16.99 -19.75 17.5 C-23.67787651 19.31286608 -25.84478654 18.91414696 -30 18 C-30 17.67 -30 17.34 -30 17 C-26.37 16.67 -22.74 16.34 -19 16 C-19 15.34 -19 14.68 -19 14 C-17.56640625 12.7734375 -17.56640625 12.7734375 -15.5625 11.375 C-11.39096081 8.37089691 -7.64397312 5.03812133 -3.8828125 1.5390625 C-2 0 -2 0 0 0 Z " fill="#F5E2F0" transform="translate(264,527)"/>
<path d="M0 0 C-0.66 0 -1.32 0 -2 0 C-2 0.66 -2 1.32 -2 2 C-0.68 2.33 0.64 2.66 2 3 C2 4.32 2 5.64 2 7 C-0.12472576 7.05386629 -2.24983652 7.09273071 -4.375 7.125 C-6.15003906 7.15980469 -6.15003906 7.15980469 -7.9609375 7.1953125 C-11 7 -11 7 -13 5 C-13.70125 5.33 -14.4025 5.66 -15.125 6 C-18.26003116 7.09044562 -20.70563182 7.15322643 -24 7 C-20.35109873 4.56739916 -16.67266928 3.27918509 -12.5625 1.8125 C-11.79873047 1.52697266 -11.03496094 1.24144531 -10.24804688 0.94726562 C-9.50748047 0.68236328 -8.76691406 0.41746094 -8.00390625 0.14453125 C-7.33174072 -0.09934326 -6.6595752 -0.34321777 -5.96704102 -0.59448242 C-3.6667154 -1.06870867 -2.21127747 -0.72228276 0 0 Z " fill="#F6FCF9" transform="translate(398,121)"/>
<path d="M0 0 C4.31152026 6.46728039 3.13146787 14.99482886 3.09765625 22.49609375 C3.0962413 23.68477554 3.09482635 24.87345734 3.09336853 26.09815979 C3.08779114 29.87796594 3.07524275 33.65771189 3.0625 37.4375 C3.05748208 40.0071606 3.05291968 42.57682213 3.04882812 45.14648438 C3.03782911 51.43100997 3.0211135 57.71550068 3 64 C2.67 64 2.34 64 2 64 C-0.38776806 21.1979874 -0.38776806 21.1979874 0 0 Z " fill="#EFC1DA" transform="translate(488,464)"/>
<path d="M0 0 C1.5090332 1.2355957 1.5090332 1.2355957 3 3 C3.15698242 4.99291992 3.15698242 4.99291992 2.85546875 7.23046875 C2.75556641 8.03291016 2.65566406 8.83535156 2.55273438 9.66210938 C2.43220703 10.49548828 2.31167969 11.32886719 2.1875 12.1875 C2.07857422 13.03248047 1.96964844 13.87746094 1.85742188 14.74804688 C1.58636567 16.83400115 1.29510064 18.91731128 1 21 C0.34 21 -0.32 21 -1 21 C-1.33 20.34 -1.66 19.68 -2 19 C-2.66 19 -3.32 19 -4 19 C-4.12375 20.299375 -4.2475 21.59875 -4.375 22.9375 C-4.5859375 25.15234375 -4.5859375 25.15234375 -5 27 C-5.66 27.33 -6.32 27.66 -7 28 C-6.34144549 22.40228665 -5.05277638 17.1625348 -3.5 11.75 C-3.27441406 10.94820312 -3.04882812 10.14640625 -2.81640625 9.3203125 C-1.9317111 6.18985272 -1.02892657 3.08677971 0 0 Z " fill="#F0FBFB" transform="translate(269,245)"/>
<path d="M0 0 C0.33 0.66 0.66 1.32 1 2 C0.23830621 3.9257339 -0.61473802 5.81535158 -1.5 7.6875 C-7.82147677 21.68061703 -11.97079868 36.96939155 -15 52 C-15.33 52 -15.66 52 -16 52 C-16.125 45.25 -16.125 45.25 -15 43 C-14.77532169 41.46331135 -14.59203195 39.92031946 -14.4375 38.375 C-14.35371094 37.55773437 -14.26992188 36.74046875 -14.18359375 35.8984375 C-14.12300781 35.27195312 -14.06242187 34.64546875 -14 34 C-13.34 34 -12.68 34 -12 34 C-11.90203125 33.35675781 -11.8040625 32.71351563 -11.703125 32.05078125 C-10.44853532 24.46916604 -8.38984279 17.29714135 -6 10 C-5.34 10 -4.68 10 -4 10 C-3.896875 9.0925 -3.79375 8.185 -3.6875 7.25 C-2.99585051 3.98038425 -2.17865079 2.46282263 0 0 Z " fill="#B53677" transform="translate(277,222)"/>
<path d="M0 0 C0.33 0 0.66 0 1 0 C1.01213028 0.90629654 1.01213028 0.90629654 1.02450562 1.8309021 C1.11102181 8.15846673 1.21054199 14.4857349 1.31738281 20.81298828 C1.35550385 23.16970819 1.39038516 25.52648294 1.421875 27.88330078 C1.46789381 31.28437816 1.52582589 34.68508343 1.5859375 38.0859375 C1.59748871 39.12801361 1.60903992 40.17008972 1.62094116 41.2437439 C1.73469056 46.97012954 2.27058125 52.30245764 3.55264282 57.88955688 C4.13918818 60.65663134 4.28128953 63.18710473 4 66 C3.01 66.99 3.01 66.99 2 68 C0.39763213 59.15847455 -0.27688763 50.67626337 -0.1953125 41.69921875 C-0.19106766 39.89563652 -0.19106766 39.89563652 -0.18673706 38.05561829 C-0.17566289 34.2661384 -0.1505829 30.47690681 -0.125 26.6875 C-0.11495368 24.09700865 -0.10583075 21.50651355 -0.09765625 18.91601562 C-0.07576556 12.6105943 -0.04241793 6.3053149 0 0 Z " fill="#F7C8E6" transform="translate(112,304)"/>
<path d="M0 0 C0.66 0 1.32 0 2 0 C3.25664978 2.90600261 4 4.79604584 4 8 C2.3203125 9.6484375 2.3203125 9.6484375 0.125 11.375 C-3.02907516 13.99968092 -5.00153366 15.88132636 -6 20 C-6.66 19.67 -7.32 19.34 -8 19 C-6.00386732 12.2813095 -3.2708579 6.19265192 0 0 Z " fill="#BB2872" transform="translate(140,200)"/>
<path d="M0 0 C3.92734211 3.77024843 7.44406161 7.88470051 11 12 C9.68 12.33 8.36 12.66 7 13 C6.34 12.01 5.68 11.02 5 10 C4.34 10.66 3.68 11.32 3 12 C2.01 12 1.02 12 0 12 C-0.33 10.68 -0.66 9.36 -1 8 C-1.66 8 -2.32 8 -3 8 C-2.37240135 5.07120629 -1.41377341 2.63904371 0 0 Z " fill="#FCEFF7" transform="translate(165,482)"/>
<path d="M0 0 C0.66 0.33 1.32 0.66 2 1 C0.90300781 1.61488281 -0.19398438 2.22976562 -1.32421875 2.86328125 C-2.77866735 3.67964917 -4.23309323 4.49605756 -5.6875 5.3125 C-6.40873047 5.71662109 -7.12996094 6.12074219 -7.87304688 6.53710938 C-8.57880859 6.93349609 -9.28457031 7.32988281 -10.01171875 7.73828125 C-10.70056152 8.12322754 -11.3894043 8.50817383 -12.09912109 8.90478516 C-13.70999493 9.83291 -15.27694894 10.83662172 -16.83203125 11.85546875 C-17.90517578 12.42201172 -17.90517578 12.42201172 -19 13 C-19.99 12.67 -20.98 12.34 -22 12 C-22 10.35 -22 8.7 -22 7 C-18.01803543 5.94595055 -15.01804691 6.15901344 -11 7 C-11 6.34 -11 5.68 -11 5 C-10.29875 4.731875 -9.5975 4.46375 -8.875 4.1875 C-5.90260505 3.01308973 -5.90260505 3.01308973 -2.8125 1.3125 C-1.884375 0.879375 -0.95625 0.44625 0 0 Z " fill="#F8E5F2" transform="translate(422,250)"/>
<path d="M0 0 C0.66 0 1.32 0 2 0 C2 1.32 2 2.64 2 4 C1.34 4 0.68 4 0 4 C0.33 4.66 0.66 5.32 1 6 C2.32 5.67 3.64 5.34 5 5 C5 4.34 5 3.68 5 3 C5.66 3 6.32 3 7 3 C7 2.34 7 1.68 7 1 C7.66 1 8.32 1 9 1 C7.26102321 5.01455213 4.60214985 8.32025266 1.9375 11.75 C1.47794922 12.35199219 1.01839844 12.95398438 0.54492188 13.57421875 C-0.61022635 15.07031381 -1.80205028 16.53795201 -3 18 C-3.33 18 -3.66 18 -4 18 C-3.33730218 11.70437067 -2.00674702 6.02024106 0 0 Z " fill="#F1FBF6" transform="translate(162,150)"/>
<path d="M0 0 C0 0.66 0 1.32 0 2 C-0.66 2 -1.32 2 -2 2 C-2 2.99 -2 3.98 -2 5 C0.64 4.67 3.28 4.34 6 4 C5.67 4.99 5.34 5.98 5 7 C3.51886719 6.85691406 3.51886719 6.85691406 2.0078125 6.7109375 C0.72648437 6.60007813 -0.55484375 6.48921875 -1.875 6.375 C-3.15117187 6.25898438 -4.42734375 6.14296875 -5.7421875 6.0234375 C-6.81726563 6.01570312 -7.89234375 6.00796875 -9 6 C-9.66 6.66 -10.32 7.32 -11 8 C-13.1640625 8.1953125 -13.1640625 8.1953125 -15.625 8.125 C-16.44226563 8.10695312 -17.25953125 8.08890625 -18.1015625 8.0703125 C-18.72804688 8.04710937 -19.35453125 8.02390625 -20 8 C-17.16443197 5.16443197 -13.69624132 4.22554971 -10 2.875 C-9.26265625 2.59785156 -8.5253125 2.32070312 -7.765625 2.03515625 C-2.27170567 0 -2.27170567 0 0 0 Z " fill="#C0166C" transform="translate(466,232)"/>
<path d="M0 0 C1.75439901 3.27171708 2.95717385 6.60422042 4.125 10.125 C4.47820312 11.17945313 4.83140625 12.23390625 5.1953125 13.3203125 C6 16 6 16 6 18 C5.34 18 4.68 18 4 18 C4 18.66 4 19.32 4 20 C3.01 19.67 2.02 19.34 1 19 C0.3125 16.9375 0.3125 16.9375 0 15 C-0.99 15.495 -0.99 15.495 -2 16 C-2.2919519 10.45291384 -1.19088986 5.38027025 0 0 Z " fill="#F9ECF4" transform="translate(122,396)"/>
<path d="M0 0 C0 2 0 2 -1.5 3.625 C-1.995 4.07875 -2.49 4.5325 -3 5 C-2.01 5.33 -1.02 5.66 0 6 C-3.57644848 7.2380014 -6.33694766 6.74926071 -10 6 C-10 6.99 -10 7.98 -10 9 C-13.3 9.33 -16.6 9.66 -20 10 C-14.56659195 5.12866865 -7.42678976 0 0 0 Z " fill="#BB2572" transform="translate(256,86)"/>
<path d="M0 0 C0.66 0.33 1.32 0.66 2 1 C2 1.99 2 2.98 2 4 C1.34 4 0.68 4 0 4 C0 4.66 0 5.32 0 6 C0.66 6.33 1.32 6.66 2 7 C-1.44307679 8.14769226 -4.40094235 8 -8 8 C-8.226875 8.598125 -8.45375 9.19625 -8.6875 9.8125 C-11.17785089 13.96308482 -15.61572425 15.37155472 -20 17 C-16.83947901 12.57685881 -13.30022135 9.82803744 -8.875 6.8125 C-4.22461982 3.67160175 -4.22461982 3.67160175 0 0 Z " fill="#F4D0E8" transform="translate(344,144)"/>
<path d="M0 0 C2.60423592 -0.02697137 5.20819244 -0.04682489 7.8125 -0.0625 C8.55048828 -0.07087891 9.28847656 -0.07925781 10.04882812 -0.08789062 C13.29922068 -0.10259828 15.89404895 -0.03531702 19 1 C19.33 1.66 19.66 2.32 20 3 C20.99 3.66 21.98 4.32 23 5 C17.10926326 6.29271095 13.19976122 5.53786235 7.5625 3.5625 C6.83095703 3.31951172 6.09941406 3.07652344 5.34570312 2.82617188 C3.55932563 2.23071271 1.77898352 1.61719836 0 1 C0 0.67 0 0.34 0 0 Z " fill="#F4F4F8" transform="translate(330,80)"/>
<path d="M0 0 C0.33 0 0.66 0 1 0 C1.08564209 0.54938232 1.17128418 1.09876465 1.25952148 1.66479492 C1.65108339 4.17253608 2.0442772 6.68001877 2.4375 9.1875 C2.63956055 10.48397461 2.63956055 10.48397461 2.84570312 11.80664062 C3.63596699 16.84022739 3.63596699 16.84022739 4.59375 21.84375 C5.23556865 25.25032591 5.0586456 28.53990963 5 32 C4.01 31.67 3.02 31.34 2 31 C1.34 25.39 0.68 19.78 0 14 C-0.66 14.66 -1.32 15.32 -2 16 C-1.34 10.72 -0.68 5.44 0 0 Z " fill="#BB2F75" transform="translate(258,333)"/>
<path d="M0 0 C0.33 0.66 0.66 1.32 1 2 C1.66 2 2.32 2 3 2 C4.00486895 4.95670218 5.00306024 7.91561577 6 10.875 C6.28617188 11.71675781 6.57234375 12.55851562 6.8671875 13.42578125 C7.27324219 14.63427734 7.27324219 14.63427734 7.6875 15.8671875 C7.93886719 16.61081543 8.19023437 17.35444336 8.44921875 18.12060547 C9 20 9 20 9 22 C9.66 22 10.32 22 11 22 C11.66 25.3 12.32 28.6 13 32 C10.81399658 29.08532877 9.43980052 27.08319393 8.02734375 23.8828125 C7.68509766 23.11066406 7.34285156 22.33851563 6.99023438 21.54296875 C6.64283203 20.74503906 6.29542969 19.94710938 5.9375 19.125 C5.58623047 18.33480469 5.23496094 17.54460937 4.87304688 16.73046875 C0 5.65787453 0 5.65787453 0 0 Z " fill="#B1276C" transform="translate(126,406)"/>
<path d="M0 0 C-1.32 0.33 -2.64 0.66 -4 1 C-4 1.66 -4 2.32 -4 3 C-3.34 3 -2.68 3 -2 3 C-2 3.99 -2 4.98 -2 6 C-9.92 6.495 -9.92 6.495 -18 7 C-14.80361708 3.80361708 -12.61210989 2.83588532 -8.4375 1.25 C-7.28121094 0.80140625 -6.12492187 0.3528125 -4.93359375 -0.109375 C-2 -1 -2 -1 0 0 Z " fill="#BA2B70" transform="translate(274,79)"/>
<path d="M0 0 C3.62203283 3.62203283 5.96830817 8.3271088 8 13 C7.67 13.99 7.34 14.98 7 16 C6.01 16 5.02 16 4 16 C4 15.34 4 14.68 4 14 C3.34 14 2.68 14 2 14 C-0.28062828 10.57905758 -0.21925007 9.31812778 -0.125 5.3125 C-0.10695312 4.31863281 -0.08890625 3.32476562 -0.0703125 2.30078125 C-0.04710937 1.54152344 -0.02390625 0.78226562 0 0 Z " fill="#F4F1F7" transform="translate(144,450)"/>
<path d="M0 0 C1.66666667 1.66666667 3.33333333 3.33333333 5 5 C6.2684375 6.2375 6.2684375 6.2375 7.5625 7.5 C10 10 10 10 11.75 12.5 C14.93301049 16.03667832 18.784408 17.88319632 23 20 C20 21 20 21 17.7734375 20.14453125 C16.98195313 19.70496094 16.19046875 19.26539063 15.375 18.8125 C14.57835937 18.38582031 13.78171875 17.95914062 12.9609375 17.51953125 C11 16 11 16 10.2265625 13.82421875 C10.15179688 13.22222656 10.07703125 12.62023437 10 12 C7.69 11.34 5.38 10.68 3 10 C3.33 9.01 3.66 8.02 4 7 C2.68 6.34 1.36 5.68 0 5 C0 3.35 0 1.7 0 0 Z " fill="#BD357D" transform="translate(305,452)"/>
<path d="M0 0 C0.99 0 1.98 0 3 0 C3 0.66 3 1.32 3 2 C5.31 2 7.62 2 10 2 C6.13076581 5.06484076 1.93985573 7.59289853 -2.25 10.1875 C-2.99507813 10.65091797 -3.74015625 11.11433594 -4.5078125 11.59179688 C-6.33752435 12.72950232 -8.16862513 13.86497348 -10 15 C-10 14.01 -10 13.02 -10 12 C-9.34 12 -8.68 12 -8 12 C-7.34 10.68 -6.68 9.36 -6 8 C-4.68 8 -3.36 8 -2 8 C-1.67 6.68 -1.34 5.36 -1 4 C-0.34 4 0.32 4 1 4 C1.33 3.34 1.66 2.68 2 2 C1.34 2 0.68 2 0 2 C0 1.34 0 0.68 0 0 Z " fill="#BE2775" transform="translate(353,131)"/>
<path d="M0 0 C0.99 0.86625 1.98 1.7325 3 2.625 C6.86190708 5.94197541 10.89447006 8.99283262 15 12 C12.33440687 13.77706209 9.9719385 14.87548273 7 16 C7.020625 15.05125 7.04125 14.1025 7.0625 13.125 C7.22551826 10.09333717 7.22551826 10.09333717 6 8 C3.97536745 7.34786708 3.97536745 7.34786708 2 7 C2 6.34 2 5.68 2 5 C1.01 4.67 0.02 4.34 -1 4 C-0.67 2.68 -0.34 1.36 0 0 Z " fill="#F8E1F2" transform="translate(201,520)"/>
<path d="M0 0 C0.33 0.99 0.66 1.98 1 3 C-4.75 8 -4.75 8 -7 8 C-7.33 8.66 -7.66 9.32 -8 10 C-8.66 9.67 -9.32 9.34 -10 9 C-12.3400417 9.28241883 -14.67504723 9.61250787 -17 10 C-14.08849508 7.74375257 -11.0950295 5.7704702 -7.9375 3.875 C-7.08027344 3.35679687 -6.22304688 2.83859375 -5.33984375 2.3046875 C-3 1 -3 1 0 0 Z " fill="#F5D8ED" transform="translate(313,494)"/>
<path d="M0 0 C0.66 0.33 1.32 0.66 2 1 C3.34262065 0.70630173 4.67696283 0.3721042 6 0 C6.66 0 7.32 0 8 0 C8 0.99 8 1.98 8 3 C7.01 3 6.02 3 5 3 C5 3.66 5 4.32 5 5 C1.60268371 7.09065618 -1.04269405 7.42098999 -5 7 C-6.68359375 5.48046875 -6.68359375 5.48046875 -8 4 C-6.71349294 3.30289269 -5.42059335 2.61757124 -4.125 1.9375 C-3.40570313 1.55464844 -2.68640625 1.17179687 -1.9453125 0.77734375 C-1.30335938 0.52082031 -0.66140625 0.26429688 0 0 Z " fill="#F3FAFB" transform="translate(323,489)"/>
<path d="M0 0 C0.928125 0.165 1.85625 0.33 2.8125 0.5 C5.95621353 1.07748388 5.95621353 1.07748388 9 1 C9.33 2.32 9.66 3.64 10 5 C4.57866629 7.82852194 -0.87333782 9.36029038 -7 8 C-8.796875 5.97265625 -8.796875 5.97265625 -10 4 C-8.35 4 -6.7 4 -5 4 C-5 4.99 -5 5.98 -5 7 C-2.36 6.34 0.28 5.68 3 5 C1.68 4.01 0.36 3.02 -1 2 C-0.67 1.34 -0.34 0.68 0 0 Z " fill="#F6F1F6" transform="translate(367,272)"/>
<path d="M0 0 C1.72985242 0.11512153 3.45888751 0.24255677 5.1875 0.375 C6.15042969 0.44460937 7.11335938 0.51421875 8.10546875 0.5859375 C11.02220232 1.00317604 13.29142051 1.88015033 16 3 C16.99 3 17.98 3 19 3 C19 3.66 19 4.32 19 5 C20.11375 5.309375 21.2275 5.61875 22.375 5.9375 C26 7 26 7 28 8 C28 8.66 28 9.32 28 10 C18.57004072 7.29895639 9.29430999 4.12847689 0 1 C0 0.67 0 0.34 0 0 Z " fill="#F4C6E3" transform="translate(378,96)"/>
<path d="M0 0 C0.33 1.32 0.66 2.64 1 4 C1.66 4 2.32 4 3 4 C3 4.66 3 5.32 3 6 C4.32 6 5.64 6 7 6 C7 7.98 7 9.96 7 12 C3.03869629 12 2.17085599 10.65122875 -0.6875 8 C-1.49574219 7.2575 -2.30398437 6.515 -3.13671875 5.75 C-3.75160156 5.1725 -4.36648437 4.595 -5 4 C-4.0409375 3.8453125 -4.0409375 3.8453125 -3.0625 3.6875 C-2.381875 3.460625 -1.70125 3.23375 -1 3 C-0.67 2.01 -0.34 1.02 0 0 Z " fill="#C12373" transform="translate(201,512)"/>
<path d="M0 0 C9.9 0 19.8 0 30 0 C30 0.66 30 1.32 30 2 C32.64 2 35.28 2 38 2 C37.67 2.66 37.34 3.32 37 4 C35.49986903 3.85552017 33.99990298 3.70932785 32.5 3.5625 C31.24703125 3.44068359 31.24703125 3.44068359 29.96875 3.31640625 C27.73568068 3.07840807 25.50693861 2.79925225 23.28125 2.5 C18.53237455 1.89852819 13.77931408 1.66141564 9 1.4375 C8.12988281 1.39431641 7.25976562 1.35113281 6.36328125 1.30664062 C4.24231781 1.20175782 2.12117567 1.10049925 0 1 C0 0.67 0 0.34 0 0 Z " fill="#B9417D" transform="translate(386,471)"/>
<path d="M0 0 C0 0.99 0 1.98 0 3 C-1.98 3.33 -3.96 3.66 -6 4 C-6 4.33 -6 4.66 -6 5 C-13.425 6.485 -13.425 6.485 -21 8 C-21 7.34 -21 6.68 -21 6 C-20.21625 5.71125 -19.4325 5.4225 -18.625 5.125 C-15.90328368 4.15087746 -15.90328368 4.15087746 -14 2 C-9.19433294 0.30388221 -5.0816782 -0.20741544 0 0 Z " fill="#F8ECF6" transform="translate(486,224)"/>
<path d="M0 0 C4.875 2.625 4.875 2.625 6 6 C7.65 5.34 9.3 4.68 11 4 C11 5.65 11 7.3 11 9 C10.34 9 9.68 9 9 9 C9 9.99 9 10.98 9 12 C9.66 12 10.32 12 11 12 C11.66 14.31 12.32 16.62 13 19 C7.07868011 13.77530598 3.43179948 7.04250794 0 0 Z " fill="#B62971" transform="translate(146,453)"/>
<path d="M0 0 C0.66 0 1.32 0 2 0 C3.00484204 1.95585325 4.00373805 3.91476237 5 5.875 C5.556875 6.96554687 6.11375 8.05609375 6.6875 9.1796875 C8 12 8 12 8 14 C7.34 14 6.68 14 6 14 C5.34 13.34 4.68 12.68 4 12 C2.02 12.99 2.02 12.99 0 14 C0 9.38 0 4.76 0 0 Z " fill="#B81E6C" transform="translate(282,418)"/>
<path d="M0 0 C1.60407328 -0.02708567 3.2082785 -0.04643483 4.8125 -0.0625 C5.70582031 -0.07410156 6.59914063 -0.08570313 7.51953125 -0.09765625 C10 0 10 0 13 1 C13.33 1.66 13.66 2.32 14 3 C15.56019179 3.66163689 17.14927836 4.25603612 18.75 4.8125 C23.30906632 6.54337762 25.89692157 8.27630588 29 12 C26.08257032 10.90596387 23.4274601 9.68672345 20.6875 8.1875 C14.18515955 4.85457888 6.98037936 3.06700554 0 1 C0 0.67 0 0.34 0 0 Z " fill="#B1407D" transform="translate(424,475)"/>
<path d="M0 0 C1.60875 0.2784375 1.60875 0.2784375 3.25 0.5625 C6.40391546 0.9304568 8.09818492 1.04465343 11 0 C11.33 0.99 11.66 1.98 12 3 C8.44360764 5.30119506 5.05281712 6.77472971 1 8 C1 6.35 1 4.7 1 3 C0.34 2.67 -0.32 2.34 -1 2 C-0.67 1.34 -0.34 0.68 0 0 Z " fill="#F6EDF5" transform="translate(249,80)"/>
<path d="M0 0 C4.70588235 0.70588235 4.70588235 0.70588235 6 2 C7.66617115 2.04063832 9.33388095 2.042721 11 2 C7.79509037 4.59037598 4.44649547 6.37943156 0.75 8.1875 C-0.32765625 8.71730469 -1.4053125 9.24710937 -2.515625 9.79296875 C-3.33546875 10.19128906 -4.1553125 10.58960938 -5 11 C-4.67 10.01 -4.34 9.02 -4 8 C-1.9375 7.3125 -1.9375 7.3125 0 7 C-0.185625 6.030625 -0.37125 5.06125 -0.5625 4.0625 C-0.706875 3.051875 -0.85125 2.04125 -1 1 C-0.67 0.67 -0.34 0.34 0 0 Z " fill="#F5E4F2" transform="translate(389,262)"/>
<path d="M0 0 C0.33 1.32 0.66 2.64 1 4 C0.34 4 -0.32 4 -1 4 C-1.2475 4.804375 -1.495 5.60875 -1.75 6.4375 C-3 9 -3 9 -5.125 9.8125 C-5.74375 9.874375 -6.3625 9.93625 -7 10 C-7 10.66 -7 11.32 -7 12 C-8.98 12.33 -10.96 12.66 -13 13 C-9.0580583 8.11950075 -4.88049925 3.9419417 0 0 Z " fill="#BE3578" transform="translate(198,123)"/>
<path d="M0 0 C1.32 0.33 2.64 0.66 4 1 C3.01 1.33 2.02 1.66 1 2 C1 2.66 1 3.32 1 4 C-0.69588264 5.54091405 -2.45821672 7.00923297 -4.25 8.4375 C-5.22453125 9.21996094 -6.1990625 10.00242187 -7.203125 10.80859375 C-9.44910335 12.5683617 -11.70709843 14.30216098 -14 16 C-13.67 14.35 -13.34 12.7 -13 11 C-12.34 11 -11.68 11 -11 11 C-10.34 9.68 -9.68 8.36 -9 7 C-8.01 7.33 -7.02 7.66 -6 8 C-6 6.68 -6 5.36 -6 4 C-4.68 4 -3.36 4 -2 4 C-2 3.34 -2 2.68 -2 2 C-1.34 2 -0.68 2 0 2 C0 1.34 0 0.68 0 0 Z " fill="#B63276" transform="translate(263,523)"/>
<path d="M0 0 C8.39001357 1.29523251 16.08853669 4.0132516 24 7 C24 7.33 24 7.66 24 8 C19.90001861 8.18636279 17.60765805 7.80382903 14 6 C9.8492571 5.71258858 9.8492571 5.71258858 6 7 C6 6.34 6 5.68 6 5 C4.68 4.67 3.36 4.34 2 4 C2 3.34 2 2.68 2 2 C1.34 2 0.68 2 0 2 C0 1.34 0 0.68 0 0 Z " fill="#B53575" transform="translate(378,97)"/>
<path d="M0 0 C2 2 2 2 2.125 5.625 C2.08375 6.73875 2.0425 7.8525 2 9 C1.34 9 0.68 9 0 9 C0 17.91 0 26.82 0 36 C-0.33 36 -0.66 36 -1 36 C-1.02465098 31.03377651 -1.04283649 26.06758834 -1.05493164 21.10131836 C-1.0599719 19.41055684 -1.06680405 17.71979971 -1.07543945 16.02905273 C-1.08751857 13.60399293 -1.09323123 11.17899056 -1.09765625 8.75390625 C-1.10281754 7.99348526 -1.10797882 7.23306427 -1.11329651 6.44960022 C-1.11349238 4.6326743 -1.06197277 2.81586873 -1 1 C-0.67 0.67 -0.34 0.34 0 0 Z " fill="#B73E7E" transform="translate(354,295)"/>
<path d="M0 0 C0.99 0 1.98 0 3 0 C3 0.66 3 1.32 3 2 C4.65 2 6.3 2 8 2 C7.67 3.32 7.34 4.64 7 6 C6.01 6 5.02 6 4 6 C4 6.66 4 7.32 4 8 C0.7 7.01 -2.6 6.02 -6 5 C-6 4.67 -6 4.34 -6 4 C-4.02 4 -2.04 4 0 4 C0 2.68 0 1.36 0 0 Z " fill="#F7EEF8" transform="translate(496,224)"/>
<path d="M0 0 C0.33 0 0.66 0 1 0 C0.25 6.75 0.25 6.75 -2 9 C-2.64767793 11.57061311 -2.64767793 11.57061311 -3 14 C-3.99 14 -4.98 14 -6 14 C-6.66 15.65 -7.32 17.3 -8 19 C-8.99 18.67 -9.98 18.34 -11 18 C-9.54257101 15.56195521 -8.08409532 13.12454725 -6.625 10.6875 C-6.2125 9.99720703 -5.8 9.30691406 -5.375 8.59570312 C-4.97539062 7.92861328 -4.57578125 7.26152344 -4.1640625 6.57421875 C-3.79748535 5.96151123 -3.4309082 5.34880371 -3.05322266 4.7175293 C-2.0740333 3.12072885 -1.03902076 1.55853114 0 0 Z " fill="#F5CEE8" transform="translate(295,192)"/>
<path d="M0 0 C0.625 1.875 0.625 1.875 1 4 C0.34 4.66 -0.32 5.32 -1 6 C-1.268125 6.639375 -1.53625 7.27875 -1.8125 7.9375 C-3.36890847 10.64073576 -5.3204793 11.4884755 -8 13 C-8.33 13.66 -8.66 14.32 -9 15 C-9.66 15 -10.32 15 -11 15 C-11 15.99 -11 16.98 -11 18 C-11.99 18 -12.98 18 -14 18 C-12.68761832 15.15741394 -11.23292824 12.90591755 -9.1796875 10.546875 C-8.64472656 9.928125 -8.10976562 9.309375 -7.55859375 8.671875 C-7.00300781 8.03765625 -6.44742188 7.4034375 -5.875 6.75 C-5.31167969 6.1003125 -4.74835938 5.450625 -4.16796875 4.78125 C-2.78235636 3.184273 -1.39167246 1.59169878 0 0 Z " fill="#BC3276" transform="translate(180,141)"/>
<path d="M0 0 C0.66 0 1.32 0 2 0 C0.76396294 4.08843028 -0.7350001 7.39277793 -3 11 C-4.68641111 13.98908795 -6.34329646 16.99435997 -8 20 C-8.33 20 -8.66 20 -9 20 C-8.67 17.36 -8.34 14.72 -8 12 C-7.01 12 -6.02 12 -5 12 C-4.67 10.02 -4.34 8.04 -4 6 C-4.99 6.33 -5.98 6.66 -7 7 C-7.66 6.67 -8.32 6.34 -9 6 C-9 5.34 -9 4.68 -9 4 C-3.25 3.875 -3.25 3.875 -1 5 C-0.67 3.35 -0.34 1.7 0 0 Z " fill="#F6E4F1" transform="translate(153,172)"/>
<path d="M0 0 C0 2 0 2 -1.9375 4 C-2.618125 4.66 -3.29875 5.32 -4 6 C-4.33 6.66 -4.66 7.32 -5 8 C-7.32156597 8.40729228 -9.6568787 8.74438677 -12 9 C-12.33 10.32 -12.66 11.64 -13 13 C-14.65 12.67 -16.3 12.34 -18 12 C-14.922555 8.69955174 -11.63121175 6.24183581 -7.875 3.75 C-6.82054687 3.04359375 -5.76609375 2.3371875 -4.6796875 1.609375 C-2 0 -2 0 0 0 Z " fill="#B43072" transform="translate(236,96)"/>
<path d="M0 0 C0.99 0.33 1.98 0.66 3 1 C0.25727599 2.5135972 -2.49525633 4.00840709 -5.25 5.5 C-6.02730469 5.92925781 -6.80460937 6.35851562 -7.60546875 6.80078125 C-8.35957031 7.20683594 -9.11367188 7.61289062 -9.890625 8.03125 C-10.58188477 8.40830078 -11.27314453 8.78535156 -11.98535156 9.17382812 C-14 10 -14 10 -18 10 C-17.67 9.01 -17.34 8.02 -17 7 C-16.34 7.33 -15.68 7.66 -15 8 C-15 7.34 -15 6.68 -15 6 C-11.535 5.505 -11.535 5.505 -8 5 C-8 4.34 -8 3.68 -8 3 C-7.05125 2.690625 -6.1025 2.38125 -5.125 2.0625 C-2.13919592 1.12605258 -2.13919592 1.12605258 0 0 Z " fill="#B22C70" transform="translate(317,490)"/>
<path d="M0 0 C0.99 0.33 1.98 0.66 3 1 C-1.30769231 6.84615385 -1.30769231 6.84615385 -5 8 C-7.25 7.625 -7.25 7.625 -9 7 C-8.875 5.125 -8.875 5.125 -8 3 C-5.0625 1.8125 -5.0625 1.8125 -2 1 C-1.34 0.67 -0.68 0.34 0 0 Z " fill="#F5E7F3" transform="translate(345,464)"/>
<path d="M0 0 C2.6855594 2.6855594 3.06049974 5.37621328 4 9 C2.68 9 1.36 9 0 9 C0 9.66 0 10.32 0 11 C0.66 11.33 1.32 11.66 2 12 C0.68 13.32 -0.64 14.64 -2 16 C-2.05402274 13.89611431 -2.09280256 11.79183286 -2.125 9.6875 C-2.14820312 8.51574219 -2.17140625 7.34398437 -2.1953125 6.13671875 C-2 3 -2 3 0 0 Z " fill="#F2FAF6" transform="translate(130,420)"/>
<path d="M0 0 C2.54184599 3.09764322 4.05849147 6.16919843 5.5625 9.875 C5.97628906 10.88304687 6.39007813 11.89109375 6.81640625 12.9296875 C7.97205061 15.92749763 9.01017748 18.94386594 10 22 C9.01 22 8.02 22 7 22 C6.70996094 21.04287109 6.70996094 21.04287109 6.4140625 20.06640625 C6.15367187 19.24011719 5.89328125 18.41382813 5.625 17.5625 C5.24214844 16.32693359 5.24214844 16.32693359 4.8515625 15.06640625 C4.19117773 12.82201984 4.19117773 12.82201984 2 12 C0.58355646 7.90805199 -0.26260116 4.33291912 0 0 Z " fill="#B63E7C" transform="translate(272,394)"/>
<path d="M0 0 C4.75 0.75 4.75 0.75 7 3 C13.77825216 3.9866265 19.74712225 2.53739967 26 0 C22.84026192 3.47571189 20.46105324 4.88158329 15.72265625 5.265625 C14.51480469 5.26046875 13.30695313 5.2553125 12.0625 5.25 C10.85722656 5.25515625 9.65195312 5.2603125 8.41015625 5.265625 C5.15876275 5.0123664 2.92033029 4.39643877 0 3 C0 2.01 0 1.02 0 0 Z " fill="#B13674" transform="translate(353,276)"/>
<path d="M0 0 C-1.24136719 0.06058594 -2.48273438 0.12117187 -3.76171875 0.18359375 C-5.40365577 0.26803623 -7.04558232 0.35268236 -8.6875 0.4375 C-9.50412109 0.47681641 -10.32074219 0.51613281 -11.16210938 0.55664062 C-14.52426681 0.73359628 -17.66361937 0.92490314 -20.95703125 1.66015625 C-21.96830078 1.82837891 -21.96830078 1.82837891 -23 2 C-23.66 1.34 -24.32 0.68 -25 0 C-17.67745413 -2.78954129 -6.89998847 -4.31463299 0 0 Z " fill="#B42C6E" transform="translate(492,231)"/>
<path d="M0 0 C0.66 0.33 1.32 0.66 2 1 C1.67 2.32 1.34 3.64 1 5 C1.66 5.33 2.32 5.66 3 6 C2.40539047 7.91965309 1.79890739 9.83563079 1.1875 11.75 C0.85105469 12.81734375 0.51460937 13.8846875 0.16796875 14.984375 C-0.91882377 17.79040787 -2.06852537 19.71986376 -4 22 C-4.20086443 18.28400809 -4.1519437 17.22791555 -2 14 C-1.74969023 11.41619823 -1.74969023 11.41619823 -2 9 C-2.33 8.67 -2.66 8.34 -3 8 C-1.125 1.125 -1.125 1.125 0 0 Z " fill="#F4DDEC" transform="translate(131,208)"/>
<path d="M0 0 C0 0.99 0 1.98 0 3 C-0.99 3.495 -0.99 3.495 -2 4 C-1.34 4.66 -0.68 5.32 0 6 C-2.89234315 6.82638376 -4.88742431 7 -8 7 C-10.33634657 7.31151288 -12.67038557 7.64159778 -15 8 C-11.0826156 4.57228865 -5.47848189 0 0 0 Z " fill="#F3D5EA" transform="translate(374,128)"/>
<path d="M0 0 C1.051875 0.4640625 1.051875 0.4640625 2.125 0.9375 C5.08936657 2.03302678 7.87698108 2.56422992 11 3 C8.30621211 5.69378789 5.77425019 6.13672837 2.125 7.1875 C0.89007813 7.55230469 -0.34484375 7.91710937 -1.6171875 8.29296875 C-4.68905505 8.93501035 -6.14357992 9.12677877 -9 8 C-7.73160474 7.49384702 -6.46016898 6.99530901 -5.1875 6.5 C-4.12595703 6.08234375 -4.12595703 6.08234375 -3.04296875 5.65625 C-1 5 -1 5 2 5 C2 4.34 2 3.68 2 3 C1.01 3 0.02 3 -1 3 C-0.67 2.01 -0.34 1.02 0 0 Z " fill="#B4286E" transform="translate(345,474)"/>
<path d="M0 0 C0.66 0.33 1.32 0.66 2 1 C0.3125 4 0.3125 4 -2 7 C-4.5625 7.1875 -4.5625 7.1875 -7 7 C-7.474375 7.495 -7.94875 7.99 -8.4375 8.5 C-10 10 -10 10 -13.1875 10.1875 C-14.115625 10.125625 -15.04375 10.06375 -16 10 C-12.77333979 7.47478766 -9.39568033 5.34337749 -5.875 3.25 C-4.29332031 2.29867188 -4.29332031 2.29867188 -2.6796875 1.328125 C-1.79539062 0.88984375 -0.91109375 0.4515625 0 0 Z " fill="#BB2E73" transform="translate(401,263)"/>
<path d="M0 0 C2.0234375 3.6796875 2.0234375 3.6796875 1.8125 6.5625 C1 9 1 9 -0.5625 10.4375 C-2.71523123 12.77742526 -2.06418865 14.91894479 -2 18 C-2.66 18.99 -3.32 19.98 -4 21 C-4.66 21 -5.32 21 -6 21 C-5.42381249 15.85404946 -4.25256722 11.44921945 -2.4375 6.5625 C-1.98246094 5.32628906 -1.52742187 4.09007812 -1.05859375 2.81640625 C-0.70925781 1.88699219 -0.35992187 0.95757812 0 0 Z " fill="#B43172" transform="translate(131,219)"/>
<path d="M0 0 C0.66 0 1.32 0 2 0 C2.268125 0.99 2.53625 1.98 2.8125 3 C3.56894892 5.67707808 4.46447143 8.23156332 5.5 10.8125 C7.28264103 15.41841008 8.15479493 20.14752854 9 25 C8.34 25.33 7.68 25.66 7 26 C6.01149308 22.98214387 5.03592807 19.96025033 4.0625 16.9375 C3.64581055 15.66616211 3.64581055 15.66616211 3.22070312 14.36914062 C1.68133159 9.56555956 0.53787349 5.01788303 0 0 Z " fill="#F8DCF1" transform="translate(265,368)"/>
<path d="M0 0 C6.82026757 1.5739079 13.38239489 3.72795558 20 6 C19.34 7.32 18.68 8.64 18 10 C17.649375 9.525625 17.29875 9.05125 16.9375 8.5625 C14.15836457 6.32126175 11.4855283 6.32882342 8 6 C8 5.34 8 4.68 8 4 C7.236875 3.855625 6.47375 3.71125 5.6875 3.5625 C3 3 3 3 0 2 C0 1.34 0 0.68 0 0 Z " fill="#BE206B" transform="translate(344,85)"/>
<path d="M0 0 C0 0.66 0 1.32 0 2 C-5.16017278 4.98746845 -10.19834261 6.02541328 -16 7 C-16.33 6.01 -16.66 5.02 -17 4 C-15.88625 3.87625 -14.7725 3.7525 -13.625 3.625 C-9.96896323 3.3534187 -9.96896323 3.3534187 -8 1 C-5.29913367 0.43731951 -2.7611525 0 0 0 Z " fill="#EFFCFA" transform="translate(249,85)"/>
<path d="M0 0 C0.89074219 0.28101562 1.78148437 0.56203125 2.69921875 0.8515625 C5.23860724 1.70466947 7.72898716 2.62214443 10.1875 3.6875 C10.1875 4.0175 10.1875 4.3475 10.1875 4.6875 C7.91608891 4.57347936 5.64535448 4.44591495 3.375 4.3125 C2.11042969 4.24289063 0.84585937 4.17328125 -0.45703125 4.1015625 C-3.8125 3.6875 -3.8125 3.6875 -6.8125 1.6875 C-6.8125 1.0275 -6.8125 0.3675 -6.8125 -0.3125 C-4.06163109 -1.68793445 -2.89329274 -0.91526952 0 0 Z " fill="#C52672" transform="translate(314.8125,74.3125)"/>
<path d="M0 0 C-3.55006855 2.29710318 -6.90457936 3.90788783 -11 5 C-11.66 4.67 -12.32 4.34 -13 4 C-13 4.66 -13 5.32 -13 6 C-14.32 5.34 -15.64 4.68 -17 4 C-15.3962669 3.35309078 -13.79199694 2.70751236 -12.1875 2.0625 C-10.84751953 1.52302734 -10.84751953 1.52302734 -9.48046875 0.97265625 C-5.76679063 -0.48357344 -3.82661053 -1.18756878 0 0 Z " fill="#F9E0F2" transform="translate(353,480)"/>
<path d="M0 0 C-2.79620866 2.79620866 -6.11539948 3.45304063 -9.8125 4.5625 C-10.52470703 4.78357422 -11.23691406 5.00464844 -11.97070312 5.23242188 C-15.623878 6.35101659 -19.23016951 7.34083514 -23 8 C-22.67 7.01 -22.34 6.02 -22 5 C-16.555 4.01 -16.555 4.01 -11 3 C-11 2.34 -11 1.68 -11 1 C-7.26562152 0.12132271 -3.83225427 -0.08912219 0 0 Z " fill="#AE3370" transform="translate(400,118)"/>
<path d="M0 0 C2.475 0.495 2.475 0.495 5 1 C5 1.99 5 2.98 5 4 C5.99 4.33 6.98 4.66 8 5 C8 5.99 8 6.98 8 8 C9.134375 8.268125 10.26875 8.53625 11.4375 8.8125 C13.2009375 9.4003125 13.2009375 9.4003125 15 10 C15.33 10.99 15.66 11.98 16 13 C9.55005381 10.7235484 4.55224481 7.08780303 0 2 C0 1.34 0 0.68 0 0 Z " fill="#F2CBE7" transform="translate(312,459)"/>
<path d="M0 0 C0.33 0 0.66 0 1 0 C1.33 4.29 1.66 8.58 2 13 C1.34 13 0.68 13 0 13 C0.061875 14.0828125 0.061875 14.0828125 0.125 15.1875 C-0.00921305 18.20729369 -0.75170619 20.26935729 -2 23 C-2.66 23 -3.32 23 -4 23 C-3.79503906 22.17757813 -3.59007812 21.35515625 -3.37890625 20.5078125 C-1.72841996 13.66895545 -0.45976084 7.02324312 0 0 Z " fill="#BC387A" transform="translate(355,435)"/>
<path d="M0 0 C-15.74487472 2.29612756 -15.74487472 2.29612756 -23 2 C-16.51100062 -1.78524964 -6.56336935 -4.37557957 0 0 Z " fill="#B63A78" transform="translate(307,73)"/>
<path d="M0 0 C0.33 0 0.66 0 1 0 C1.02505615 0.77714355 1.0501123 1.55428711 1.07592773 2.35498047 C1.19166796 5.86183069 1.31449352 9.36839745 1.4375 12.875 C1.47681641 14.09832031 1.51613281 15.32164062 1.55664062 16.58203125 C1.59853516 17.74863281 1.64042969 18.91523438 1.68359375 20.1171875 C1.72025146 21.19597168 1.75690918 22.27475586 1.79467773 23.38623047 C1.83376643 25.98069536 1.83376643 25.98069536 3 28 C3.039992 29.99960012 3.04346799 32.00047242 3 34 C0.11271661 29.66907492 -0.12029542 27.66794648 -0.09765625 22.4609375 C-0.09443359 21.15898437 -0.09121094 19.85703125 -0.08789062 18.515625 C-0.07953466 17.13541601 -0.07106971 15.75520768 -0.0625 14.375 C-0.05748501 12.98698074 -0.0529221 11.59895978 -0.04882812 10.2109375 C-0.03700976 6.80724868 -0.02053434 3.40364561 0 0 Z " fill="#B21E68" transform="translate(114,328)"/>
<path d="M0 0 C1.32 0 2.64 0 4 0 C3.34 2.31 2.68 4.62 2 7 C-0.97 7 -3.94 7 -7 7 C-7 6.34 -7 5.68 -7 5 C-5.02 4.67 -3.04 4.34 -1 4 C-1 3.01 -1 2.02 -1 1 C-0.67 0.67 -0.34 0.34 0 0 Z " fill="#D20F6E" transform="translate(484,231)"/>
<path d="M0 0 C4.45546312 1.40028841 6.81656989 3.64449259 10 7 C10.66 7.33 11.32 7.66 12 8 C12 9.32 12 10.64 12 12 C12.66 12.33 13.32 12.66 14 13 C11 13 11 13 8.30078125 10.41015625 C7.29625729 9.30185366 6.3004628 8.18559061 5.3125 7.0625 C4.80138672 6.49853516 4.29027344 5.93457031 3.76367188 5.35351562 C0 1.15769985 0 1.15769985 0 0 Z " fill="#BC3778" transform="translate(169,487)"/>
<path d="M0 0 C0.66 0 1.32 0 2 0 C3.54696305 2.24559153 4.89510725 4.57901752 6.26953125 6.93359375 C8.39633489 9.47327575 9.76653268 9.69806332 13 10 C12.67 11.32 12.34 12.64 12 14 C8.84027493 13.70822359 8.00144457 13.00164228 5.859375 10.56640625 C5.16328125 9.57511719 4.4671875 8.58382813 3.75 7.5625 C3.04359375 6.57378906 2.3371875 5.58507812 1.609375 4.56640625 C0 2 0 2 0 0 Z " fill="#BE2570" transform="translate(466,497)"/>
<path d="M0 0 C5.30254659 0.8372442 6.90134333 2.78582693 10 7 C10.556875 7.7425 11.11375 8.485 11.6875 9.25 C12.3371875 10.11625 12.3371875 10.11625 13 11 C12.67 11.66 12.34 12.32 12 13 C9.99698146 11.0238076 7.99750133 9.04425526 6 7.0625 C5.42765625 6.49853516 4.8553125 5.93457031 4.265625 5.35351562 C2.82474495 3.92121224 1.41012857 2.46258871 0 1 C0 0.67 0 0.34 0 0 Z " fill="#B6286F" transform="translate(183,502)"/>
<path d="M0 0 C0 0.33 0 0.66 0 1 C-0.78246094 1.13277344 -1.56492187 1.26554687 -2.37109375 1.40234375 C-3.38300781 1.57894531 -4.39492188 1.75554687 -5.4375 1.9375 C-6.44683594 2.11152344 -7.45617187 2.28554688 -8.49609375 2.46484375 C-10.9287438 2.74751097 -10.9287438 2.74751097 -12 4 C-14.34987262 4.23527773 -16.70556039 4.41386417 -19.0625 4.5625 C-20.35285156 4.64628906 -21.64320313 4.73007812 -22.97265625 4.81640625 C-23.97167969 4.87699219 -24.97070312 4.93757813 -26 5 C-19.03675063 0.35783375 -8.25004758 -0.50510495 0 0 Z " fill="#EEB6D7" transform="translate(388,472)"/>
<path d="M0 0 C0.33 0 0.66 0 1 0 C0.67 4.62 0.34 9.24 0 14 C-0.66 14 -1.32 14 -2 14 C-2.12375 15.299375 -2.2475 16.59875 -2.375 17.9375 C-2.5859375 20.15234375 -2.5859375 20.15234375 -3 22 C-3.66 22.33 -4.32 22.66 -5 23 C-4.34240251 17.73229802 -3.26735876 12.69866827 -1.9375 7.5625 C-1.75123047 6.83095703 -1.56496094 6.09941406 -1.37304688 5.34570312 C-0.9186242 3.56296802 -0.45977534 1.78136213 0 0 Z " fill="#F7D0EA" transform="translate(267,250)"/>
<path d="M0 0 C-6.6800221 3.85167232 -12.26442661 5.81895467 -20 6 C-16.91409445 3.94272963 -14.0065132 2.67681397 -10.5625 1.3125 C-9.42941406 0.85488281 -8.29632813 0.39726563 -7.12890625 -0.07421875 C-4.09890216 -0.97073681 -2.86729887 -1.16241846 0 0 Z " fill="#F6CCE7" transform="translate(394,122)"/>
<path d="M0 0 C5.94 0 11.88 0 18 0 C18 0.33 18 0.66 18 1 C17.16597656 1.12117188 16.33195312 1.24234375 15.47265625 1.3671875 C8.90884576 2.34461632 2.45697784 3.46783577 -4 5 C-4 4.34 -4 3.68 -4 3 C-3.01 2.67 -2.02 2.34 -1 2 C-0.67 1.34 -0.34 0.68 0 0 Z " fill="#F8D7EC" transform="translate(285,70)"/>
<path d="M0 0 C7.50769231 -0.36923077 7.50769231 -0.36923077 10 1.5 C10.495 2.2425 10.495 2.2425 11 3 C5.58461538 6.07692308 5.58461538 6.07692308 2.625 5.6875 C2.08875 5.460625 1.5525 5.23375 1 5 C0.67 3.35 0.34 1.7 0 0 Z " fill="#F5E6EF" transform="translate(429,240)"/>
<path d="M0 0 C1.65 0 3.3 0 5 0 C1 4 -3 8 -7 12 C-7.33 11.01 -7.66 10.02 -8 9 C-7.34 9 -6.68 9 -6 9 C-6 8.01 -6 7.02 -6 6 C-5.01 6 -4.02 6 -3 6 C-2.67 4.68 -2.34 3.36 -2 2 C-1.34 2 -0.68 2 0 2 C0 1.34 0 0.68 0 0 Z " fill="#B33173" transform="translate(326,154)"/>
<path d="M0 0 C17.0521542 1.0521542 17.0521542 1.0521542 22 6 C14.36945905 5.38955672 7.29810526 3.20378179 0 1 C0 0.67 0 0.34 0 0 Z " fill="#FBD4F0" transform="translate(414,474)"/>
<path d="M0 0 C1.65 0.33 3.3 0.66 5 1 C4.125 5.875 4.125 5.875 3 7 C-4.39449541 6.40366972 -4.39449541 6.40366972 -8 4 C-5.98177083 4.09765625 -3.96354167 4.1953125 -1.9453125 4.29296875 C-1.30335938 4.19628906 -0.66140625 4.09960938 0 4 C0.66 3.01 1.32 2.02 2 1 C1.34 0.67 0.68 0.34 0 0 Z " fill="#B03976" transform="translate(426,113)"/>
<path d="M0 0 C3.49234244 -0.09978121 6.59437148 0.22157062 10 1 C7.42215154 3.64752004 5.08351902 5.94432065 2 8 C1.01 7.34 0.02 6.68 -1 6 C-0.34 5.34 0.32 4.68 1 4 C1 4.66 1 5.32 1 6 C1.66 6 2.32 6 3 6 C3.33218192 2.99740483 3.33218192 2.99740483 1.5 1.3125 C1.005 0.879375 0.51 0.44625 0 0 Z " fill="#F5E5F1" transform="translate(200,112)"/>
<path d="M0 0 C3.91121498 0.68936071 7.55508596 1.78250181 11.3125 3.0625 C12.38113281 3.42472656 13.44976562 3.78695312 14.55078125 4.16015625 C15.76314453 4.57587891 15.76314453 4.57587891 17 5 C15.68 5.33 14.36 5.66 13 6 C13.33 6.99 13.66 7.98 14 9 C13.01 8.67 12.02 8.34 11 8 C11 7.34 11 6.68 11 6 C9.35 5.67 7.7 5.34 6 5 C6 4.34 6 3.68 6 3 C4.02 2.34 2.04 1.68 0 1 C0 0.67 0 0.34 0 0 Z " fill="#B12C70" transform="translate(325,79)"/>
<path d="M0 0 C2.475 0.495 2.475 0.495 5 1 C5 1.66 5 2.32 5 3 C5.66 3 6.32 3 7 3 C7 2.34 7 1.68 7 1 C7.66 1 8.32 1 9 1 C8.6875 3.375 8.6875 3.375 8 6 C7.01 6.66 6.02 7.32 5 8 C4.16382818 6.8562364 3.33113541 5.70992861 2.5 4.5625 C2.0359375 3.92441406 1.571875 3.28632813 1.09375 2.62890625 C0 1 0 1 0 0 Z " fill="#F2F5F9" transform="translate(303,448)"/>
<path d="M0 0 C-0.66 1.32 -1.32 2.64 -2 4 C-5.63 4 -9.26 4 -13 4 C-8.62340682 -0.37659318 -5.88808394 -0.39919213 0 0 Z " fill="#EFFBFA" transform="translate(365,272)"/>
<path d="M0 0 C1.32 0.33 2.64 0.66 4 1 C3.39254603 5.85963179 1.27241033 9.7405518 -1 14 C-1.33 14 -1.66 14 -2 14 C-1.85923685 12.0412957 -1.7122324 10.08303907 -1.5625 8.125 C-1.48128906 7.03445312 -1.40007812 5.94390625 -1.31640625 4.8203125 C-1 2 -1 2 0 0 Z " fill="#FADEF1" transform="translate(138,194)"/>
<path d="M0 0 C6.75 -0.125 6.75 -0.125 9 1 C8.34 2.32 7.68 3.64 7 5 C4.03 4.505 4.03 4.505 1 4 C0.67 2.68 0.34 1.36 0 0 Z " fill="#C0166D" transform="translate(419,113)"/>
<path d="M0 0 C2 1.375 2 1.375 4 4 C4.35791096 7.3580469 4.23115823 10.63536357 4 14 C1.45677323 10.75808456 0.00895906 8.03583624 -1 4 C-0.625 1.625 -0.625 1.625 0 0 Z " fill="#F4E6F5" transform="translate(284,412)"/>
<path d="M0 0 C0.33 0 0.66 0 1 0 C1.02685938 2.14576637 1.04633088 4.29162645 1.0625 6.4375 C1.07410156 7.63246094 1.08570312 8.82742188 1.09765625 10.05859375 C1 13 1 13 0 14 C-0.36760731 16.32817964 -0.70241581 18.6618385 -1 21 C-1.33 21 -1.66 21 -2 21 C-2.24091535 13.7725395 -1.34495828 7.09705662 0 0 Z " fill="#B93C79" transform="translate(116,271)"/>
<path d="M0 0 C0.99 0.33 1.98 0.66 3 1 C-0.96 6.94 -0.96 6.94 -5 13 C-6 9 -6 9 -6 7 C-5.34 7 -4.68 7 -4 7 C-3.525625 6.030625 -3.05125 5.06125 -2.5625 4.0625 C-1 1 -1 1 0 0 Z " fill="#AF2F72" transform="translate(295,188)"/>
<path d="M0 0 C7.48291572 6.15034169 7.48291572 6.15034169 10 10 C7.69 10 5.38 10 3 10 C3 8.02 3 6.04 3 4 C2.01 3.67 1.02 3.34 0 3 C0 2.01 0 1.02 0 0 Z " fill="#F8D9EE" transform="translate(182,502)"/>
<path d="M0 0 C0.45375 0.495 0.9075 0.99 1.375 1.5 C2.87635519 3.22609337 2.87635519 3.22609337 5 3 C5.33 3.99 5.66 4.98 6 6 C7.49985609 7.66710346 7.49985609 7.66710346 9 9 C8.01 10.485 8.01 10.485 7 12 C6.7525 11.21625 6.505 10.4325 6.25 9.625 C4.79075497 6.56058543 3.94985044 6.38274239 1 5 C-0.25 2.875 -0.25 2.875 -1 1 C-0.67 0.67 -0.34 0.34 0 0 Z " fill="#F0FBF8" transform="translate(177,499)"/>
<path d="M0 0 C1.58137059 4.74411176 -1.08555589 8.12298314 -3.1875 12.4375 C-3.455625 12.953125 -3.72375 13.46875 -4 14 C-4.99 14 -5.98 14 -7 14 C-5.23570801 9.02790438 -2.6060834 4.56561939 0 0 Z " fill="#B53975" transform="translate(149,183)"/>
<path d="M0 0 C0.99 0.66 1.98 1.32 3 2 C2.01 2.66 1.02 3.32 0 4 C0.309375 5.175625 0.309375 5.175625 0.625 6.375 C0.74875 7.24125 0.8725 8.1075 1 9 C0.34 9.66 -0.32 10.32 -1 11 C-1 10.01 -1 9.02 -1 8 C-2.32 8.33 -3.64 8.66 -5 9 C-3.7508258 5.54074837 -2.32472205 2.85306797 0 0 Z " fill="#C2367D" transform="translate(159,167)"/>
<path d="M0 0 C5.19209404 -0.21192221 9.126739 0.4087311 14 2 C14 2.66 14 3.32 14 4 C14.66 4.33 15.32 4.66 16 5 C10.47293087 4.27275406 5.30039859 2.66554027 0 1 C0 0.67 0 0.34 0 0 Z " fill="#F4C7E4" transform="translate(330,80)"/>
<path d="M0 0 C1.65 0.99 3.3 1.98 5 3 C2.06171403 5.50298434 -0.17902761 6.46930939 -4 7 C-3.43628586 3.73045798 -2.50037734 2.17424117 0 0 Z " fill="#F5F1F6" transform="translate(218,535)"/>
<path d="M0 0 C0.99 0 1.98 0 3 0 C3 1.65 3 3.3 3 5 C2.34 5 1.68 5 1 5 C1 10.61 1 16.22 1 22 C0.67 22 0.34 22 0 22 C0 14.74 0 7.48 0 0 Z " fill="#F7C7E1" transform="translate(491,531)"/>
<path d="M0 0 C0.99 0.33 1.98 0.66 3 1 C0.36 5.95 -2.28 10.9 -5 16 C-5.33 16 -5.66 16 -6 16 C-6 14.35 -6 12.7 -6 11 C-5.34 11 -4.68 11 -4 11 C-3.896875 10.484375 -3.79375 9.96875 -3.6875 9.4375 C-2.75736134 6.13973565 -1.38604488 3.13366668 0 0 Z " fill="#B33073" transform="translate(286,202)"/>
<path d="M0 0 C0.66 0.33 1.32 0.66 2 1 C-1.96 3.64 -5.92 6.28 -10 9 C-10.33 8.01 -10.66 7.02 -11 6 C-10.34 6 -9.68 6 -9 6 C-9 5.34 -9 4.68 -9 4 C-7.02 3.67 -5.04 3.34 -3 3 C-3 2.34 -3 1.68 -3 1 C-2.01 0.67 -1.02 0.34 0 0 Z " fill="#B4316F" transform="translate(292,504)"/>
<path d="M0 0 C0.33 1.98 0.66 3.96 1 6 C-2.3 5.34 -5.6 4.68 -9 4 C-9 3.01 -9 2.02 -9 1 C-2.25 0 -2.25 0 0 0 Z " fill="#BF3277" transform="translate(341,472)"/>
<path d="M0 0 C0 0.66 0 1.32 0 2 C-4.455 3.485 -4.455 3.485 -9 5 C-9 5.66 -9 6.32 -9 7 C-10.98 7 -12.96 7 -15 7 C-10.79066147 3.49221789 -5.5744558 0 0 0 Z " fill="#AF2B6F" transform="translate(445,241)"/>
<path d="M0 0 C-2.67024533 1.78016355 -5.05030861 2.97163019 -8 4.1875 C-8.86625 4.55230469 -9.7325 4.91710937 -10.625 5.29296875 C-13 6 -13 6 -16 5 C-11.74719134 0.74719134 -5.8758621 -0.44068966 0 0 Z " fill="#F9D9EE" transform="translate(464,232)"/>
<path d="M0 0 C1.32 0.33 2.64 0.66 4 1 C3.34 1 2.68 1 2 1 C2 1.66 2 2.32 2 3 C3.32 3.33 4.64 3.66 6 4 C6 4.66 6 5.32 6 6 C4.02 6 2.04 6 0 6 C0 5.34 0 4.68 0 4 C-0.99 4.33 -1.98 4.66 -3 5 C-2.67 4.01 -2.34 3.02 -2 2 C-1.34 2 -0.68 2 0 2 C0 1.34 0 0.68 0 0 Z " fill="#FBF0F7" transform="translate(394,120)"/>
<path d="M0 0 C-6.93 3.465 -6.93 3.465 -14 7 C-14 6.01 -14 5.02 -14 4 C-12.42466914 3.13116294 -10.83935491 2.28040932 -9.25 1.4375 C-8.36828125 0.96183594 -7.4865625 0.48617187 -6.578125 -0.00390625 C-4 -1 -4 -1 0 0 Z " fill="#FAD3EF" transform="translate(249,89)"/>
<path d="M0 0 C1.32 0.33 2.64 0.66 4 1 C4 1.99 4 2.98 4 4 C4.66 4 5.32 4 6 4 C8.10865385 7.47307692 8.10865385 7.47307692 7.55859375 10.140625 C7.28208984 11.06101562 7.28208984 11.06101562 7 12 C5.83061933 10.18924982 4.66456267 8.37635257 3.5 6.5625 C2.8503125 5.55316406 2.200625 4.54382813 1.53125 3.50390625 C0 1 0 1 0 0 Z " fill="#F5D4EB" transform="translate(288,427)"/>
<path d="M0 0 C1.93242285 3.34520258 2.5463853 6.44767482 3.125 10.25 C3.29257813 11.32765625 3.46015625 12.4053125 3.6328125 13.515625 C3.75398438 14.33546875 3.87515625 15.1553125 4 16 C3.34 16 2.68 16 2 16 C2 14.02 2 12.04 2 10 C1.34 10 0.68 10 0 10 C-0.74926071 6.33694766 -1.2380014 3.57644848 0 0 Z " fill="#F3C9E4" transform="translate(116,370)"/>
<path d="M0 0 C0.66 0 1.32 0 2 0 C2.66 1.98 3.32 3.96 4 6 C1.69 6.66 -0.62 7.32 -3 8 C-2.45276317 4.62537285 -1.9451 2.91765 0 0 Z " fill="#C02671" transform="translate(153,176)"/>
<path d="M0 0 C0.99 0 1.98 0 3 0 C3 0.66 3 1.32 3 2 C4.670625 2.4640625 4.670625 2.4640625 6.375 2.9375 C10 4 10 4 12 5 C12 5.66 12 6.32 12 7 C10.37007308 6.60304363 8.74607765 6.18167507 7.125 5.75 C5.76761719 5.40195313 5.76761719 5.40195313 4.3828125 5.046875 C2 4 2 4 0.6796875 1.890625 C0.45539063 1.26671875 0.23109375 0.6428125 0 0 Z " fill="#F9D7F2" transform="translate(394,99)"/>
<path d="M0 0 C0.66 0 1.32 0 2 0 C2.33 0.99 2.66 1.98 3 3 C1.8803014 4.00593243 0.7540588 5.0045849 -0.375 6 C-1.00148438 6.556875 -1.62796875 7.11375 -2.2734375 7.6875 C-4 9 -4 9 -6 9 C-5.67 7.35 -5.34 5.7 -5 4 C-4.0409375 3.8453125 -4.0409375 3.8453125 -3.0625 3.6875 C-2.381875 3.460625 -1.70125 3.23375 -1 3 C-0.67 2.01 -0.34 1.02 0 0 Z " fill="#B92B72" transform="translate(337,145)"/>
<path d="M0 0 C-2.34914492 2.34914492 -3.95679446 2.73140357 -7.125 3.625 C-8.03507812 3.88539062 -8.94515625 4.14578125 -9.8828125 4.4140625 C-10.58148438 4.60742188 -11.28015625 4.80078125 -12 5 C-8.76199993 -1.0134287 -6.55763881 -1.31152776 0 0 Z " fill="#F9DDEC" transform="translate(274,77)"/>
<path d="M0 0 C0.66 0 1.32 0 2 0 C2.67154933 1.28913487 3.33708859 2.58140204 4 3.875 C4.37125 4.59429687 4.7425 5.31359375 5.125 6.0546875 C6 8 6 8 6 10 C5.01 10 4.02 10 3 10 C3 8.68 3 7.36 3 6 C2.01 5.67 1.02 5.34 0 5 C0 3.35 0 1.7 0 0 Z " fill="#B33273" transform="translate(282,418)"/>
<path d="M0 0 C1.75 0.875 1.75 0.875 3.75 2.875 C-1.875 4 -1.875 4 -5.25 2.875 C-4.92 3.865 -4.59 4.855 -4.25 5.875 C-5.57 5.215 -6.89 4.555 -8.25 3.875 C-2.87068966 -0.15948276 -2.87068966 -0.15948276 0 0 Z " fill="#B61D6A" transform="translate(386.25,273.125)"/>
<path d="M0 0 C-3.96 2.64 -7.92 5.28 -12 8 C-12 7.01 -12 6.02 -12 5 C-11.34 5 -10.68 5 -10 5 C-9.79375 4.38125 -9.5875 3.7625 -9.375 3.125 C-7.25535372 -0.15081698 -3.63044833 -1.81522417 0 0 Z " fill="#AF3571" transform="translate(355,138)"/>
<path d="M0 0 C0.33 0.99 0.66 1.98 1 3 C0.34 3.66 -0.32 4.32 -1 5 C-1.99 5 -2.98 5 -4 5 C-4 5.66 -4 6.32 -4 7 C-5.65 7.33 -7.3 7.66 -9 8 C-6.14723863 5.06799526 -3.34920216 2.35684596 0 0 Z " fill="#B33577" transform="translate(217,108)"/>
<path d="M0 0 C1.70884005 1.62339805 3.37446717 3.29319053 5 5 C5 5.66 5 6.32 5 7 C1.62537285 6.45276317 -0.08235 5.9451 -3 4 C-2.01 2.68 -1.02 1.36 0 0 Z " fill="#F0DAE8" transform="translate(160,475)"/>
<path d="M0 0 C2.74792483 3.40219265 6 7.48464588 6 12 C4.125 11.375 4.125 11.375 2 10 C0.42687589 6.38181456 0 3.97906647 0 0 Z " fill="#F4C9E4" transform="translate(136,434)"/>
<path d="M0 0 C1.65 0 3.3 0 5 0 C5 0.99 5 1.98 5 3 C8.3 2.67 11.6 2.34 15 2 C12.49936853 4.50063147 11.52188302 4.32420142 8.0625 4.375 C6.74958984 4.41753906 6.74958984 4.41753906 5.41015625 4.4609375 C3 4 3 4 1.18359375 1.9765625 C0.79300781 1.32429688 0.40242188 0.67203125 0 0 Z " fill="#F4C8E7" transform="translate(357,276)"/>
<path d="M0 0 C0.66 0 1.32 0 2 0 C1.4590069 3.78695173 -0.03432464 5.62745972 -3 8 C-4.32 8 -5.64 8 -7 8 C-7 7.34 -7 6.68 -7 6 C-5.33720673 4.9935725 -3.67016516 3.99414593 -2 3 C-1.34 2.01 -0.68 1.02 0 0 Z " fill="#F0FCFA" transform="translate(336,152)"/>
<path d="M0 0 C2.97 0.495 2.97 0.495 6 1 C6 1.66 6 2.32 6 3 C7.65 3.33 9.3 3.66 11 4 C9.68 4.99 8.36 5.98 7 7 C6.67 6.34 6.34 5.68 6 5 C3.97536745 4.34786708 3.97536745 4.34786708 2 4 C2 3.34 2 2.68 2 2 C1.34 2 0.68 2 0 2 C0 1.34 0 0.68 0 0 Z " fill="#B1216A" transform="translate(378,97)"/>
<path d="M0 0 C0.66 0 1.32 0 2 0 C2.66 0.66 3.32 1.32 4 2 C5.31747324 2.69748583 6.64914193 3.36959957 8 4 C2.25 7 2.25 7 0 7 C0 4.69 0 2.38 0 0 Z " fill="#F6F3F6" transform="translate(208,529)"/>
<path d="M0 0 C0 0.99 0 1.98 0 3 C1.32 3.33 2.64 3.66 4 4 C2.35 4.66 0.7 5.32 -1 6 C-1 5.34 -1 4.68 -1 4 C-2.32 4 -3.64 4 -5 4 C-5 3.01 -5 2.02 -5 1 C-2 0 -2 0 0 0 Z " fill="#BF1E70" transform="translate(296,498)"/>
<path d="M0 0 C3.71509263 1.23836421 5.28882864 3.22104936 8 6 C8.99 6.66 9.98 7.32 11 8 C11 8.66 11 9.32 11 10 C9.35 9.67 7.7 9.34 6 9 C6 8.01 6 7.02 6 6 C4.68 5.34 3.36 4.68 2 4 C2 3.34 2 2.68 2 2 C1.34 2 0.68 2 0 2 C0 1.34 0 0.68 0 0 Z " fill="#F9D4EB" transform="translate(453,488)"/>
<path d="M0 0 C1.7936743 1.1217963 3.5848773 2.24754483 5.375 3.375 C6.37273437 4.00148438 7.37046875 4.62796875 8.3984375 5.2734375 C11 7 11 7 13 9 C8.20972174 8.41936021 4.95692942 6.66331788 1 4 C0.296875 1.86328125 0.296875 1.86328125 0 0 Z " fill="#AD306E" transform="translate(315,464)"/>
<path d="M0 0 C0.66 0 1.32 0 2 0 C2 1.32 2 2.64 2 4 C1.01 4 0.02 4 -1 4 C-0.67 2.68 -0.34 1.36 0 0 Z M-2 4 C-1.67 4 -1.34 4 -1 4 C1.42857143 10.28571429 1.42857143 10.28571429 0 14 C-3.07692308 8.58461538 -3.07692308 8.58461538 -2.6875 5.625 C-2.460625 5.08875 -2.23375 4.5525 -2 4 Z " fill="#B7226C" transform="translate(142,432)"/>
<path d="M0 0 C0.66 0 1.32 0 2 0 C2.33 1.32 2.66 2.64 3 4 C3.66 4 4.32 4 5 4 C5.66 7.3 6.32 10.6 7 14 C4.52456753 10.69942337 3.23883911 8.48799214 1.8125 4.75 C1.46832031 3.85796875 1.12414062 2.9659375 0.76953125 2.046875 C0.51558594 1.37140625 0.26164063 0.6959375 0 0 Z " fill="#AD3271" transform="translate(132,424)"/>
<path d="M0 0 C0.33 1.32 0.66 2.64 1 4 C-5.625 5.125 -5.625 5.125 -9 4 C-2.25 0 -2.25 0 0 0 Z " fill="#B92F74" transform="translate(430,248)"/>
<path d="M0 0 C-0.33 1.32 -0.66 2.64 -1 4 C-3.97 4 -6.94 4 -10 4 C-7.02096266 1.02096266 -4.19714671 0 0 0 Z " fill="#B32F6F" transform="translate(456,236)"/>
<path d="M0 0 C0.66 0.66 1.32 1.32 2 2 C1.34 2 0.68 2 0 2 C0 2.99 0 3.98 0 5 C-1.32 5 -2.64 5 -4 5 C-3.67 6.32 -3.34 7.64 -3 9 C-3.66 9 -4.32 9 -5 9 C-5 8.34 -5 7.68 -5 7 C-5.66 6.67 -6.32 6.34 -7 6 C-4.69 4.02 -2.38 2.04 0 0 Z " fill="#EDD1E6" transform="translate(319,165)"/>
<path d="M0 0 C0.66 0.33 1.32 0.66 2 1 C1.67 1.33 1.34 1.66 1 2 C3.475 2.99 3.475 2.99 6 4 C4.68 4.99 3.36 5.98 2 7 C0.68 6.34 -0.64 5.68 -2 5 C-1.34 3.35 -0.68 1.7 0 0 Z " fill="#C2327C" transform="translate(332,479)"/>
<path d="M0 0 C0.65234375 1.765625 0.65234375 1.765625 1 4 C0.00390625 5.921875 0.00390625 5.921875 -1.4375 7.75 C-1.91058594 8.36359375 -2.38367188 8.9771875 -2.87109375 9.609375 C-3.24363281 10.06828125 -3.61617188 10.5271875 -4 11 C-5.32 10.67 -6.64 10.34 -8 10 C-7.236875 9.46375 -6.47375 8.9275 -5.6875 8.375 C-2.77135526 5.79794186 -1.5294378 3.54185596 0 0 Z " fill="#B83776" transform="translate(349,461)"/>
<path d="M0 0 C2.31 0.33 4.62 0.66 7 1 C6.01 1.495 6.01 1.495 5 2 C5 2.66 5 3.32 5 4 C3.35 4.66 1.7 5.32 0 6 C0 4.02 0 2.04 0 0 Z " fill="#F2FCFA" transform="translate(384,265)"/>
<path d="M0 0 C0.33 0.99 0.66 1.98 1 3 C-1.3125 5.5 -1.3125 5.5 -4 8 C-4.99 8 -5.98 8 -7 8 C-4.69 5.36 -2.38 2.72 0 0 Z " fill="#F7D5EE" transform="translate(311,173)"/>
<path d="M0 0 C-3.96 3.465 -3.96 3.465 -8 7 C-8.33 6.01 -8.66 5.02 -9 4 C-6.77642026 0.66463039 -4.04815944 -2.02407972 0 0 Z " fill="#B03274" transform="translate(277,516)"/>
<path d="M0 0 C0.66 0.33 1.32 0.66 2 1 C1.67 4.96 1.34 8.92 1 13 C0.67 13 0.34 13 0 13 C-0.144375 12.236875 -0.28875 11.47375 -0.4375 10.6875 C-0.9632594 7.91827092 -0.9632594 7.91827092 -2 5 C-1.0625 2.3125 -1.0625 2.3125 0 0 Z " fill="#BC2D74" transform="translate(259,275)"/>
<path d="M0 0 C0.96661363 3.12180401 0.98988909 5.52083795 0.5625 8.75 C0.40974609 9.94882813 0.40974609 9.94882813 0.25390625 11.171875 C0.12822266 12.07679688 0.12822266 12.07679688 0 13 C-0.99 13 -1.98 13 -3 13 C-2.68991116 11.39536551 -2.37683713 9.79130769 -2.0625 8.1875 C-1.88847656 7.29417969 -1.71445313 6.40085938 -1.53515625 5.48046875 C-1 3 -1 3 0 0 Z " fill="#C84B86" transform="translate(123,243)"/>
<path d="M0 0 C1.485 0.99 1.485 0.99 3 2 C2.40138258 4.35171131 1.73075648 6.6859378 1 9 C0.01 9.495 0.01 9.495 -1 10 C-1.125 2.25 -1.125 2.25 0 0 Z " fill="#F2EFF7" transform="translate(283,212)"/>
<path d="M0 0 C0.66 0.33 1.32 0.66 2 1 C0.12050295 4.57104439 -1.17053157 6.54744301 -5 8 C-4.64950425 4.75791433 -4.43778819 3.38472296 -1.9375 1.1875 C-1.298125 0.795625 -0.65875 0.40375 0 0 Z " fill="#B43978" transform="translate(304,178)"/>
<path d="M0 0 C0.66 0 1.32 0 2 0 C0.44499019 3.81684226 -2.03595495 6.19195732 -5 9 C-5.33 7.68 -5.66 6.36 -6 5 C-4.68 4.67 -3.36 4.34 -2 4 C-2 3.34 -2 2.68 -2 2 C-1.34 2 -0.68 2 0 2 C0 1.34 0 0.68 0 0 Z " fill="#FADEF2" transform="translate(169,151)"/>
<path d="M0 0 C0.66 0.33 1.32 0.66 2 1 C2 1.99 2 2.98 2 4 C1.34 4 0.68 4 0 4 C0 4.66 0 5.32 0 6 C0.66 6.33 1.32 6.66 2 7 C1.01 7.33 0.02 7.66 -1 8 C-1.99 7.01 -2.98 6.02 -4 5 C-2.68 3.35 -1.36 1.7 0 0 Z " fill="#F5E3F2" transform="translate(344,144)"/>
<path d="M0 0 C0.99 0.33 1.98 0.66 3 1 C2.360625 1.2475 1.72125 1.495 1.0625 1.75 C-1.18741541 2.81562433 -1.18741541 2.81562433 -1.75 5.125 C-1.8325 5.74375 -1.915 6.3625 -2 7 C-3.65 6.67 -5.3 6.34 -7 6 C-4.74259377 3.66475218 -2.7194239 1.81294927 0 0 Z " fill="#BB3679" transform="translate(225,102)"/>
<path d="M0 0 C2 0.66666667 4 1.33333333 6 2 C5.67 3.32 5.34 4.64 5 6 C3.68 5.67 2.36 5.34 1 5 C1 4.01 1 3.02 1 2 C0.01 1.67 -0.98 1.34 -2 1 C-1.34 0.67 -0.68 0.34 0 0 Z " fill="#F6F9F8" transform="translate(396,96)"/>
<path d="M0 0 C2.6875 0.875 2.6875 0.875 5 2 C4.67 3.32 4.34 4.64 4 6 C0.535 4.02 0.535 4.02 -3 2 C-2.01 1.34 -1.02 0.68 0 0 Z " fill="#B1286E" transform="translate(227,537)"/>
<path d="M0 0 C1.32 0 2.64 0 4 0 C4 0.66 4 1.32 4 2 C5.65 2.33 7.3 2.66 9 3 C9 3.99 9 4.98 9 6 C6.0625 5.1875 6.0625 5.1875 3 4 C2.67 3.01 2.34 2.02 2 1 C1.34 0.67 0.68 0.34 0 0 Z " fill="#C04280" transform="translate(214,531)"/>
<path d="M0 0 C0.66 0.66 1.32 1.32 2 2 C1.625 4.125 1.625 4.125 1 6 C0.34 6 -0.32 6 -1 6 C-1 5.34 -1 4.68 -1 4 C-2.32 4 -3.64 4 -5 4 C-5 3.34 -5 2.68 -5 2 C-3.35 1.34 -1.7 0.68 0 0 Z " fill="#EBFDFB" transform="translate(303,502)"/>
<path d="M0 0 C3.03368793 3.03368793 5 5.63755776 5 10 C4.01 9.34 3.02 8.68 2 8 C1.34 8 0.68 8 0 8 C0 5.36 0 2.72 0 0 Z " fill="#F3D8ED" transform="translate(144,450)"/>
<path d="M0 0 C4.875 4.625 4.875 4.625 6 8 C5.01 8 4.02 8 3 8 C2.67 7.01 2.34 6.02 2 5 C1.34 5 0.68 5 0 5 C0 3.35 0 1.7 0 0 Z " fill="#B83A79" transform="translate(290,432)"/>
<path d="M0 0 C1.5625 1.125 1.5625 1.125 3 3 C2.6875 6.1875 2.6875 6.1875 2 9 C1.01 8.67 0.02 8.34 -1 8 C-0.67 5.36 -0.34 2.72 0 0 Z " fill="#F8EAF2" transform="translate(269,245)"/>
<path d="M0 0 C0.99 0.66 1.98 1.32 3 2 C2.02433888 3.16959987 1.044375 4.33561177 0.0625 5.5 C-0.48277344 6.1496875 -1.02804687 6.799375 -1.58984375 7.46875 C-2.05519531 7.9740625 -2.52054687 8.479375 -3 9 C-3.33 9 -3.66 9 -4 9 C-4 7.35 -4 5.7 -4 4 C-2.68 4 -1.36 4 0 4 C0 2.68 0 1.36 0 0 Z " fill="#B62F72" transform="translate(311,168)"/>
<path d="M0 0 C0.33 0.66 0.66 1.32 1 2 C1.66 2.33 2.32 2.66 3 3 C2.01 4.485 2.01 4.485 1 6 C1.99 6.33 2.98 6.66 4 7 C2.35 7 0.7 7 -1 7 C-1 6.34 -1 5.68 -1 5 C-1.66 4.34 -2.32 3.68 -3 3 C-2.01 2.01 -1.02 1.02 0 0 Z " fill="#F5EBF7" transform="translate(323,161)"/>
<path d="M0 0 C0.66 0.33 1.32 0.66 2 1 C1.67 1.99 1.34 2.98 1 4 C-3.455 4.495 -3.455 4.495 -8 5 C-5.31158141 2.74754119 -3.35358125 1.11786042 0 0 Z " fill="#F2C9E5" transform="translate(323,489)"/>
<path d="M0 0 C2 1.75 2 1.75 4 4 C4 5.32 4 6.64 4 8 C1 7 1 7 -0.25 4.5625 C-1 2 -1 2 0 0 Z " fill="#F0E0EF" transform="translate(165,482)"/>
<path d="M0 0 C1.60407328 -0.02708567 3.2082785 -0.04643483 4.8125 -0.0625 C5.70582031 -0.07410156 6.59914063 -0.08570313 7.51953125 -0.09765625 C10 0 10 0 13 1 C13 1.66 13 2.32 13 3 C11.58249437 2.88490339 10.16598831 2.75746342 8.75 2.625 C7.96109375 2.55539062 7.1721875 2.48578125 6.359375 2.4140625 C3.914123 1.98492887 2.15163097 1.21399362 0 0 Z " fill="#AC3675" transform="translate(424,475)"/>
<path d="M0 0 C2.6855594 2.6855594 3.06049974 5.37621328 4 9 C2.68 9 1.36 9 0 9 C0 6.03 0 3.06 0 0 Z " fill="#F4CBE4" transform="translate(130,420)"/>
<path d="M0 0 C0.33 0.99 0.66 1.98 1 3 C1.66 3 2.32 3 3 3 C3 4.98 3 6.96 3 9 C2.01 9.33 1.02 9.66 0 10 C0 6.7 0 3.4 0 0 Z " fill="#CE0C66" transform="translate(265,382)"/>
<path d="M0 0 C0 0.66 0 1.32 0 2 C-0.66 2 -1.32 2 -2 2 C-2 2.66 -2 3.32 -2 4 C-4.64 4 -7.28 4 -10 4 C-7.25346796 1.25346796 -3.91404908 0 0 0 Z " fill="#B93372" transform="translate(466,232)"/>
<path d="M0 0 C0.99 0 1.98 0 3 0 C2.67 1.32 2.34 2.64 2 4 C1.01 4 0.02 4 -1 4 C-1 4.66 -1 5.32 -1 6 C-2.32 5.34 -3.64 4.68 -5 4 C-4.01 4 -3.02 4 -2 4 C-1.34 2.68 -0.68 1.36 0 0 Z " fill="#FBE4F2" transform="translate(501,226)"/>
<path d="M0 0 C0.99 0.33 1.98 0.66 3 1 C2.67 2.32 2.34 3.64 2 5 C0.33333333 5 -1.33333333 5 -3 5 C-2.625 3.0625 -2.625 3.0625 -2 1 C-1.34 0.67 -0.68 0.34 0 0 Z " fill="#EEFBF9" transform="translate(309,179)"/>
<path d="M0 0 C0.99 0.33 1.98 0.66 3 1 C3 1.66 3 2.32 3 3 C2.01 3.66 1.02 4.32 0 5 C-0.33 5.99 -0.66 6.98 -1 8 C-1.66 7.67 -2.32 7.34 -3 7 C-2.67 6.34 -2.34 5.68 -2 5 C-2.66 4.67 -3.32 4.34 -4 4 C-2.68 2.68 -1.36 1.36 0 0 Z " fill="#F2FDFA" transform="translate(349,149)"/>
<path d="M0 0 C0 0.66 0 1.32 0 2 C-1.26607607 2.53229326 -2.53810412 3.05044544 -3.8125 3.5625 C-4.52019531 3.85253906 -5.22789062 4.14257812 -5.95703125 4.44140625 C-8 5 -8 5 -11 4 C-4.5 0 -4.5 0 0 0 Z " fill="#B73478" transform="translate(256,86)"/>
<path d="M0 0 C-0.33 0.66 -0.66 1.32 -1 2 C-3.64 1.67 -6.28 1.34 -9 1 C-9 0.34 -9 -0.32 -9 -1 C-5.23375329 -2.25541557 -3.62811066 -1.37061958 0 0 Z " fill="#F0FEFB" transform="translate(286,69)"/>
<path d="M0 0 C1.32 0 2.64 0 4 0 C3.375 1.9375 3.375 1.9375 2 4 C-1.125 4.75 -1.125 4.75 -4 5 C-4 4.34 -4 3.68 -4 3 C-2.68 2.34 -1.36 1.68 0 1 C0 0.67 0 0.34 0 0 Z " fill="#B31F66" transform="translate(245,537)"/>
<path d="M0 0 C0.66 0 1.32 0 2 0 C4.47346304 2.47346304 4.98313144 3.70761168 5.1875 7.25 C5.125625 8.1575 5.06375 9.065 5 10 C2.35534962 6.8745041 1.15585285 3.91211733 0 0 Z " fill="#AF3674" transform="translate(476,512)"/>
<path d="M0 0 C0.33 1.32 0.66 2.64 1 4 C-0.32 4.99 -1.64 5.98 -3 7 C-3.66 5.68 -4.32 4.36 -5 3 C-3.35 2.01 -1.7 1.02 0 0 Z " fill="#ECFCF8" transform="translate(311,499)"/>
<path d="M0 0 C5 2 5 2 6.375 3.9375 C7 6 7 6 6 9 C4.02 6.03 2.04 3.06 0 0 Z " fill="#AD2E6B" transform="translate(160,474)"/>
<path d="M0 0 C1.98 0 3.96 0 6 0 C6 0.99 6 1.98 6 3 C1.25 4.125 1.25 4.125 -1 3 C-0.67 2.01 -0.34 1.02 0 0 Z " fill="#F7F5F7" transform="translate(321,464)"/>
<path d="M0 0 C0.33 0 0.66 0 1 0 C1.25 2.3125 1.25 2.3125 1 5 C-1 6.8125 -1 6.8125 -3 8 C-3.66 7.67 -4.32 7.34 -5 7 C-4.19152271 5.83054208 -3.37810888 4.66449539 -2.5625 3.5 C-2.11003906 2.8503125 -1.65757812 2.200625 -1.19140625 1.53125 C-0.79824219 1.0259375 -0.40507812 0.520625 0 0 Z " fill="#F4C7E2" transform="translate(301,184)"/>
<path d="M0 0 C0.66 0.33 1.32 0.66 2 1 C-0.475 5.455 -0.475 5.455 -3 10 C-3.33 10 -3.66 10 -4 10 C-3.67 7.36 -3.34 4.72 -3 2 C-2.01 2 -1.02 2 0 2 C0 1.34 0 0.68 0 0 Z " fill="#F5D5EA" transform="translate(148,182)"/>
<path d="M0 0 C0.33 0.99 0.66 1.98 1 3 C0.01 4.485 0.01 4.485 -1 6 C-1.66 6 -2.32 6 -3 6 C-3 6.99 -3 7.98 -3 9 C-3.99 9 -4.98 9 -6 9 C-4.47291037 5.56404834 -2.40072955 2.88087546 0 0 Z " fill="#BC417F" transform="translate(172,150)"/>
<path d="M0 0 C0.66 0.99 1.32 1.98 2 3 C1.01 4.485 1.01 4.485 0 6 C-1.32 5.67 -2.64 5.34 -4 5 C-3.67 4.01 -3.34 3.02 -3 2 C-2.01 2 -1.02 2 0 2 C0 1.34 0 0.68 0 0 Z " fill="#D40E6D" transform="translate(215,114)"/>
<path d="M0 0 C0.66 0 1.32 0 2 0 C3.32421875 1.42578125 3.32421875 1.42578125 4.6875 3.3125 C5.14511719 3.92738281 5.60273438 4.54226563 6.07421875 5.17578125 C6.53248047 6.07876953 6.53248047 6.07876953 7 7 C6.67 7.99 6.34 8.98 6 10 C4.99421411 8.71283353 3.99553202 7.42011342 3 6.125 C2.443125 5.40570313 1.88625 4.68640625 1.3125 3.9453125 C0 2 0 2 0 0 Z " fill="#B32A69" transform="translate(466,497)"/>
<path d="M0 0 C3.68754757 0.49831724 5.60490662 1.10067643 8 4 C5 5 5 5 2 4 C2 3.34 2 2.68 2 2 C1.34 2 0.68 2 0 2 C0 1.34 0 0.68 0 0 Z " fill="#EFFBF8" transform="translate(451,491)"/>
<path d="M0 0 C3.91211733 1.15585285 6.8745041 2.35534962 10 5 C8.3125 5.6875 8.3125 5.6875 6 6 C3.3125 4.75 3.3125 4.75 1 3 C0.67 2.01 0.34 1.02 0 0 Z " fill="#F8CFEB" transform="translate(438,480)"/>
<path d="M0 0 C1.670625 0.061875 1.670625 0.061875 3.375 0.125 C2.375 2.125 2.375 2.125 -0.6875 3.25 C-2.1415625 3.683125 -2.1415625 3.683125 -3.625 4.125 C-4.285 3.465 -4.945 2.805 -5.625 2.125 C-3.625 0.125 -3.625 0.125 0 0 Z " fill="#F4FAFA" transform="translate(369.625,475.875)"/>
<path d="M0 0 C1.32 0.33 2.64 0.66 4 1 C4.33 2.98 4.66 4.96 5 7 C4.01 6.67 3.02 6.34 2 6 C2 5.01 2 4.02 2 3 C1.34 2.67 0.68 2.34 0 2 C0 1.34 0 0.68 0 0 Z " fill="#F5F8F9" transform="translate(315,457)"/>
<path d="M0 0 C0.66 0 1.32 0 2 0 C2.22036864 3.85645121 1.60355101 6.49223216 0 10 C-0.66 10 -1.32 10 -2 10 C-1.34 6.7 -0.68 3.4 0 0 Z " fill="#B74685" transform="translate(353,448)"/>
<path d="M0 0 C0.33 0 0.66 0 1 0 C1.05399736 1.45792884 1.09279177 2.91642712 1.125 4.375 C1.14820313 5.18710937 1.17140625 5.99921875 1.1953125 6.8359375 C1 9 1 9 -1 11 C-2.0257259 6.58937864 -2.03684712 4.07369424 0 0 Z " fill="#BD1C71" transform="translate(262,256)"/>
<path d="M0 0 C1.32 0.33 2.64 0.66 4 1 C4 2.65 4 4.3 4 6 C3.01 6 2.02 6 1 6 C0.67 4.02 0.34 2.04 0 0 Z " fill="#F0F5F9" transform="translate(153,165)"/>
<path d="M0 0 C0.625 1.8125 0.625 1.8125 1 4 C-1 7 -1 7 -3.125 7.6875 C-3.74375 7.790625 -4.3625 7.89375 -5 8 C-3.62845496 5.04590299 -2.01136276 2.55991624 0 0 Z " fill="#B43C76" transform="translate(165,159)"/>
<path d="M0 0 C1.98 0 3.96 0 6 0 C3.25 4.875 3.25 4.875 1 6 C0.67 4.02 0.34 2.04 0 0 Z " fill="#F5E0F2" transform="translate(171,144)"/>
<path d="M0 0 C7.625 1.75 7.625 1.75 11 4 C6.78121808 4.19622241 3.82989106 3.80230168 0 2 C0 1.34 0 0.68 0 0 Z " fill="#B53B79" transform="translate(344,85)"/>
<path d="M0 0 C3.3 0.99 6.6 1.98 10 3 C10 3.33 10 3.66 10 4 C7.03 3.67 4.06 3.34 1 3 C0.67 2.01 0.34 1.02 0 0 Z " fill="#BB3277" transform="translate(315,75)"/>
<path d="M0 0 C3.94727588 -0.17942163 6.5980513 -0.09350689 10 2 C10 2.66 10 3.32 10 4 C6.7 3.01 3.4 2.02 0 1 C0 0.67 0 0.34 0 0 Z " fill="#F9D2EC" transform="translate(320,76)"/>
<path d="M0 0 C0.66 0.33 1.32 0.66 2 1 C0.35 2.65 -1.3 4.3 -3 6 C-3.99 5.34 -4.98 4.68 -6 4 C-4.02 2.68 -2.04 1.36 0 0 Z " fill="#F2CBE3" transform="translate(282,512)"/>
<path d="M0 0 C2.89932357 2.39509338 3.50168276 4.31245243 4 8 C3.01 8 2.02 8 1 8 C0 2.25 0 2.25 0 0 Z " fill="#F4C3E0" transform="translate(474,510)"/>
<path d="M0 0 C0.53625 0.226875 1.0725 0.45375 1.625 0.6875 C-0.355 1.3475 -2.335 2.0075 -4.375 2.6875 C-4.375 3.3475 -4.375 4.0075 -4.375 4.6875 C-5.695 4.0275 -7.015 3.3675 -8.375 2.6875 C-2.95961538 -0.38942308 -2.95961538 -0.38942308 0 0 Z " fill="#F3C7E2" transform="translate(344.375,481.3125)"/>
<path d="M0 0 C0.66 0.99 1.32 1.98 2 3 C1.34 3.66 0.68 4.32 0 5 C-0.99 5 -1.98 5 -3 5 C-3.33 3.68 -3.66 2.36 -4 1 C-2.68 0.67 -1.36 0.34 0 0 Z " fill="#EFEEF7" transform="translate(156,469)"/>
<path d="M0 0 C0.99 0 1.98 0 3 0 C1.55746343 3.36591866 -0.33264727 5.51047079 -3 8 C-2.37240135 5.07120629 -1.41377341 2.63904371 0 0 Z " fill="#F8D8EB" transform="translate(161,160)"/>
<path d="M0 0 C2.125 0.9375 2.125 0.9375 4 2 C3.01 2.99 2.02 3.98 1 5 C-1 4 -1 4 -2 1 C-1.34 0.67 -0.68 0.34 0 0 Z " fill="#B91569" transform="translate(220,107)"/>
<path d="M0 0 C0.66 0.66 1.32 1.32 2 2 C-0.31 3.65 -2.62 5.3 -5 7 C-5.33 6.34 -5.66 5.68 -6 5 C-4.6875 3.5 -4.6875 3.5 -3 2 C-2.01 2 -1.02 2 0 2 C0 1.34 0 0.68 0 0 Z " fill="#FBD6EF" transform="translate(216,106)"/>
<path d="M0 0 C0 0.66 0 1.32 0 2 C-3.28976808 3.09658936 -4.71303767 2.79953138 -8 2 C-8 1.34 -8 0.68 -8 0 C-4.71023192 -1.09658936 -3.28696233 -0.79953138 0 0 Z " fill="#EFF9FA" transform="translate(376,90)"/>
<path d="M0 0 C0.66 0.66 1.32 1.32 2 2 C1.625 4.625 1.625 4.625 1 7 C0.34 7 -0.32 7 -1 7 C-1.04254356 5.00045254 -1.04080783 2.99958364 -1 1 C-0.67 0.67 -0.34 0.34 0 0 Z " fill="#CF106B" transform="translate(483,515)"/>
<path d="M0 0 C2.4375 1.125 2.4375 1.125 5 3 C5.8125 6.1875 5.8125 6.1875 6 9 C3.59927045 6.11912454 1.52708963 3.43595166 0 0 Z " fill="#BF417F" transform="translate(146,453)"/>
<path d="M0 0 C2.475 0.495 2.475 0.495 5 1 C5 2.65 5 4.3 5 6 C3.31237149 4.3545622 1.6459651 2.68711423 0 1 C0 0.67 0 0.34 0 0 Z " fill="#FAE5F2" transform="translate(303,448)"/>
<path d="M0 0 C0.99 0.33 1.98 0.66 3 1 C3.33 1.99 3.66 2.98 4 4 C2.02 4.99 2.02 4.99 0 6 C0 4.02 0 2.04 0 0 Z " fill="#EDFEFA" transform="translate(130,437)"/>
<path d="M0 0 C2.45823172 3.68734758 3.01242616 6.69699971 4 11 C3.01 10.67 2.02 10.34 1 10 C0.67 6.7 0.34 3.4 0 0 Z " fill="#ECC1DC" transform="translate(124,403)"/>
<path d="M0 0 C0 0.66 0 1.32 0 2 C0.66 2.66 1.32 3.32 2 4 C-0.97 4 -3.94 4 -7 4 C-2.25 0 -2.25 0 0 0 Z " fill="#F6EDF7" transform="translate(359,272)"/>
<path d="M0 0 C0.66 0 1.32 0 2 0 C1.67 1.98 1.34 3.96 1 6 C0.34 6 -0.32 6 -1 6 C-1.625 4.125 -1.625 4.125 -2 2 C-1.34 1.34 -0.68 0.68 0 0 Z " fill="#F3F8F9" transform="translate(147,178)"/>
<path d="M0 0 C0.66 0.99 1.32 1.98 2 3 C1.34 3.66 0.68 4.32 0 5 C-2.625 4.625 -2.625 4.625 -5 4 C-3.36587557 2.29159719 -2.13093906 1.06546953 0 0 Z " fill="#F6DAE9" transform="translate(351,140)"/>
<path d="M0 0 C-6.625 3.125 -6.625 3.125 -10 2 C-9.67 1.34 -9.34 0.68 -9 0 C-5.65506316 -0.99444068 -3.31044803 -1.10348268 0 0 Z " fill="#AA296D" transform="translate(377,127)"/>
<path d="M0 0 C1.98 0 3.96 0 6 0 C6.33 0.99 6.66 1.98 7 3 C4.69 2.67 2.38 2.34 0 2 C0 1.34 0 0.68 0 0 Z " fill="#E7FFFA" transform="translate(407,102)"/>
</svg>
